<?xml version="1.0" encoding="utf-8"?>
<!-- Generator: Adobe Illustrator 27.8.1, SVG Export Plug-In . SVG Version: 6.00 Build 0)  -->
<svg version="1.1" xmlns="http://www.w3.org/2000/svg" xmlns:xlink="http://www.w3.org/1999/xlink" x="0px" y="0px"
	 viewBox="0 0 660.3 382.5" style="enable-background:new 0 0 660.3 382.5;" xml:space="preserve">
<style type="text/css">
	.st0{fill:#C45ECA;}
	.st1{fill:#040404;}
	.st2{fill:#107275;}
	.st3{fill:#FDFDFD;}
	.st4{fill:#FE7406;}
</style>
<g id="Layer_2">
	<path class="st0" d="M40.4,225.2C40.4,225.2,40.4,225.1,40.4,225.2C40.4,225.1,40.4,225.1,40.4,225.2L40.4,225.2z"/>
	<path class="st0" d="M48,150.8C48,150.8,48,150.8,48,150.8L48,150.8L48,150.8z"/>
	<path class="st0" d="M261.5,159.8c0-0.6-0.2-1.3-0.3-2c-0.3-2.1-0.2-4.3-0.9-6.2c-0.7-1.9-2.1-3.6-3.4-5.2
		c-0.7-0.8-1.8-1.2-2.7-1.8c0,0.1,0,0.1-0.1,0.2c-1.6-1.8-3.2-3.5-4.9-5.2c-0.2,0-0.3,0.1-0.5,0.1c0.2,1,0.5,2,0.6,3
		c-1.3,0.4-2.6,0.9-3.9,1.3c0,0.1,0,0.3,0.1,0.4h1.9c-1.7,0.9-3.2,2.1-5.2,1.4c-0.7-0.2-1.5-0.3-2.2-0.4c-0.3,1.9-1.3,0.8-2.3,0.6
		c-0.7-0.1-1.7,0.3-2.4,0.8c-0.4,0.2-0.6,0.9-0.9,1.5c-0.5-0.8-1.4-1.5-1.3-2c0.2-1.4-0.6-1.1-1.3-1.1c-0.2,0.2-0.4,0.3-0.5,0.5
		c0.1-0.2,0.2-0.5,0.2-0.7c-1,0.2-1.9,0.3-2.9,0.5c-0.2-0.2-0.6-0.6-1-0.9c-0.1,0.2-0.1,0.4-0.2,0.6c-0.6-0.1-1.2-0.1-1.8-0.2
		c-1.5-0.3-2.9-1.8-4.6-0.5c-0.7,0.6-1.4,1.3-1.9,1.8c-0.1,0-0.1,0-0.2,0c-0.8-1.3-1.5-1.1-2.1-0.7c-0.7-0.2-1.4-0.4-2.1-0.6
		c-0.5-1.5-0.9-3-1.4-4.5c0.6-0.9,0.4-1.5-0.2-2.2c3.3-0.2,6.8-0.5,10.4-0.7c0-0.3,0-0.6,0-0.9c-3.4-1.9-6.9,0.1-10.8,0
		c-0.3-0.2-1-0.5-2-1c-0.1-0.1-0.1-0.2-0.2-0.3c1-0.1,1.6-0.2,1.8-0.3c0.3-1.4,0.6-2.6,0.9-3.7c0.4-1.5,0.9-3.1,1.2-4.6
		c0.2-1.6,0.7-3.6,0-4.8c-0.9-1.8-1.2-3.3-0.5-5.1c0.2-0.6,0.1-1.3,0.1-2c0-2.5-1.3-3.7-3.8-3.8c0.2,2.3-1.2,3.5-3.1,4
		c-0.2,0.1-0.4,0.1-0.6,0.2c0-1.1,0-2.2,0-3.2c0.4-1.1,0.8-2.2,1-3.2c0-0.2,0-0.4,0-0.7c1,0.4,1.8,1.1,2.5,2.1
		c1.5-0.8,2.7-0.4,3.8,0.9c0.9,1,1.9,2.1,3,2.8c2.3,1.4,4.2,0.1,4.2-2.6c0-0.8-0.3-1.6-0.6-2.3c-0.9-2.1-3.1-3.7-2-6.5
		c0.1-0.4-0.7-1.1-1.1-1.7c-0.2-0.2-0.5-0.4-0.6-0.6c-1.3-2.3-2.5-4.6-3.8-7c0.3-0.2,1-0.6,1.9-1.2c-1.5-2.3,0.9-3.1,1.8-4.7
		c-3.6,0-6.8,0.7-9.8,2.3c-1.2,0.7-2.6,0.8-3.6,0c1.1-1.3,2-2.4,2.9-3.5c-0.1,0-0.3,0-0.5-0.1V83c-0.4,0.1-1.1,0-1.2,0.2
		c-0.8,1.9-2.2,0.9-3.5,0.8c-0.2,0-0.4,0-0.7,0.1c0.2,0.4,0.3,0.7,0.6,1.4c-1-0.1-1.9,0-2.5-0.4c-1.7-1.1-3.3-1.6-5,0.1
		c-0.2,0.2-0.6,0.2-0.6,0.3c-0.9-1.1-1.8-1.9-2.5-2.9c-0.9-1.1-2.1-2.2-2.4-3.5c-0.3-1.6-1.2-2.1-2.4-2.2c-1.9,0-4,0.1-5.8,0.6
		c-1.4,0.4-2.6,0.6-3.8-0.3c0.8-2.9-0.8-4.8-3.5-4.2c-0.8,0.2-1.6,0.3-2.3,0.7c-0.5,0.3-1,0.6-1.5,0.7c-1-1.6-2.8-2.1-4.3-3
		c-0.4-0.6-0.8-1.2-1.2-1.7c-0.3-0.5-0.5-1-1-1.4c-2.1-1.9-4.7-3.2-6.2-5.8c-0.2-0.4-0.8-0.7-1.2-1c-0.9-0.5-1.8-1-2.7-1.6
		c-1.1-0.7-2.1-1.4-3.1-2.1c-0.5-0.4-1.1-0.7-1.6-1c-0.5-0.3-1.2-0.3-1.9,0c-2.2,1-4.1,0.3-6-0.9c-1.2-0.8-2.5-1.6-3.8-2.2
		c-2.5-1.1-3-0.8-5.2,1.1c-2,1.7-4.5,3-7,4.7c-0.9-3-3.2-2.8-5.8-2.1c-1.5,0.4-1.7-0.7-1.4-1.4c-1.7-1.1-3.1-2-4.6-3
		c1.2,3-1.2,2.1-2.4,2.6c2.3,0.1,1.8,1.5,1.5,2.8c0.6,0.5,1.2,0.8,1.7,1.2c-0.1,0.3-0.2,0.5-0.2,0.8c-0.9-0.2-2.2,0-2.8-0.6
		c-2.4-2.2-4.7-4.5-7.9-5.6c-0.1,0-0.1-0.7-0.2-1c-0.6,0.1-1.2,0.3-1.7,0.4c0.3,1.2,1.3,2.7,0.9,3.6c-1,2.3,0.6,3.1,1.8,4.2
		c1.6,1.5,3.3,2.9,4.9,4.3c0.4,0,1.3-0.1,1.9,0.3c1.5,1.1,2.8,2.4,4.1,3.7c0.8,0.8,1.3,1.9,1.8,2.6c1.1-0.5,2.2-1.3,2.6-1.1
		c1.1,0.7,2,1.9,3,2.9c-0.4,0.2-1,0.2-1.1,0.5c-0.5,1.2-0.8,2.4-1.1,3.7c-0.8-0.4-1.4-0.6-2.2-0.9c0.6-0.8,1.1-1.4,1.8-2.3
		c-0.8-0.2-1.6-0.8-2.1-0.6c-1.4,0.7-2.7,1.7-4,2.7c-1,0.7-1.7,1.7-2.7,2.3c-1.2,0.8-1.4,1.7-1,3c0.2,0.5,0,1.2,0,1.9
		c-0.2,0-0.3,0-0.5,0c-0.2-0.5-0.5-0.9-0.7-1.4c-0.4,1-0.5,2.1-1.1,2.8c-0.7,0.8-1.5,1.6-2.3,2.4c-0.4,0.2-0.8,0.4-1.3,0.6
		c-2.3,0.8-4.6,1.2-7,1.8c0-1.9-1.4-2.3-2.7-2.2c-2.1,0.2-4.1,0.7-6.2,1.1c-0.5,0.1-1.1,0.5-1.5,0.4c-1.3-0.5-2,0-2.6,1.2
		c-0.1,0.3-0.7,0.3-1.1,0.5c-1.3,1.1-2.7,2.1-4,3.1c0.1,0,0.4,0.2,1.1,0.6c-1.3,0.8-2.3,2.1-3.4,2.1c-2.2,0-2.8,1.2-3.5,3
		c2.2,1.1,1.3,1.8-0.2,2.6c-1.3,0.7-2.6,1.6-4.1,2.6c-1.1-0.7-2.5-1.6-4-2.5l0,0c-0.8-0.1-1.5-0.1-2.2-0.2c0.3-1.3,0.6-2.5,0.9-3.6
		c2.9,0.8,9.1-2.5,8.9-4.8c-0.9,0.3-1.7,0.7-2.6,1c-0.1-0.2-0.2-0.4-0.3-0.7c1.3-0.7,2.6-1.5,4-2.2c-2.9-1.6-4.8,0.8-7,1.4
		c-1,0.3-1.8,1.2-2.7,1.9c0.1,0.2,0.2,0.4,0.3,0.7c1.6-0.4,3.2-0.8,4.8-1.2c0,0,0,0.1,0.1,0.2c-1.5,0.8-3,1.7-4.8,2.7
		c-0.4-0.2-1-0.5-1.3-0.6c-0.1-0.7-0.1-1.2-0.2-1.6c-0.2,0-0.5,0-0.7-0.1c-0.2,0.9-0.4,1.7-0.7,2.7c-4.5-1.3-7,2.3-10.2,4.3
		c3.5-1.1,7-2.1,10.5-3.2c0.1,0.2,0.2,0.4,0.4,0.6c-1.3,1.5-2.6,3-3.6,4.2c-1.5,0-2.9-0.4-3.9,0.1c-1.1,0.5-0.6,1.6,0,2.5
		c0.5,0.8-0.7,2-1.6,2.2c-1.4,0.3-2.8,0.9-4.1,1.3l0.6,0.5l-0.2,0.2c-0.2-0.2-0.3-0.4-0.5-0.6c-0.4,0.2-0.9,0.3-1.3,0.5
		c0.3,0.5,0.6,0.9,1,1.4c0.1,0.6,0.6,1.4,0.3,1.7c-0.5,0.8-1.2,1.5-2,2c-0.2,0.1-1.1-0.9-1.6-1.4c-0.2-0.2-0.5-0.4-0.6-0.4
		c0.3-0.6,0.5-1,0.7-1.4c-0.5-0.2-1.2-0.6-1.5-0.4c-1.2,0.6-2.2,1.4-3.3,2.1v-1.2c-2.5,0.5-5.1,1-7.6,1.5c-0.1-0.9-0.2-1.5-0.4-2.2
		h-1.9v-3.1c-0.9,0.9-1.2,2-1.9,2.7c-1.6,1.8-1.7,2.8-0.6,4.7c-0.6,0.6-1.1,1.2-1.6,1.7l0,0c-0.2,0.2-0.4,0.4-0.7,0.5
		c-0.1,1-0.4,1.4-1.4,0.6c-1.6,0.1-1.4,1.4-1.6,2.4c-0.3,0.4-0.5,0.7-0.8,1.1c-0.1,2.7-0.3,5.5,1.1,8c0.1,0.2,0,0.6,0,0.9
		c1,0.6,2.1,1.2,3,1.9c0.5,0.4,0.6,1.2,0.9,1.8c-0.5,0.2-1,0.4-1.5,0.7c0.3,1.6,0.4,3.3,1,4.8c0.9,2.5,3.6,2.5,5.5,0.1
		c0.2-1.1,0.3-2.1,0.5-3.2c-0.9-1.5-0.3-2.9,0.8-3.9c1-0.9,2.1-1.7,3.3-2.7c0.6,4,1.2,7.7,1.9,11.4c0.2,1.3,0.6,2.6,1,4
		c1.3,0,2.5,0,3.8-0.1c-0.8-2.3,0.8-2.1,2.2-1.9c-0.2-1.2-0.4-2.3-0.6-3.4c0.2,0,0.4-0.1,0.5-0.1c1,1.3,2.2,2.5,3,4
		c0.4,0.9,0.1,2.3,0.1,3.6c0.2,0.2,0.7,0.8,1.3,1.3v-2.2c2.1-0.1,2.5,0.8,1.9,2.2c1,1.3,2.4,2.3,2.7,3.5c0.6,2.1,0.6,4.3,0.6,6.4
		c0,1.4-0.8,2.7-0.5,4.3c0.2,1-1.3,2.2-2.2,3.5c-0.2,1.4-0.3,3.1-0.6,4.9c-0.3,1.6-1.5,2.6-2.9,2.5c-0.9-0.1-2-1.1-2.5-2
		c-0.5-0.8-0.9-2.1-0.7-3c0.5-1.9-0.5-3-1.7-3.9c-0.9-0.8-2.1-1.3-3.2-2c-0.4,4.7-0.8,9.1-1.2,13.5c1.1,1.1,2.1,2.2,3.2,3.3
		c0,0.3,0,0.5,0,0.8c0.7,1.4,1.8,2.1,2.8,1.5c0.8,1,1.6,1.9,2.3,2.8c-0.5,0.8-0.9,1.8-1.2,2.8c-0.1,0.4-0.2,1-0.4,1.1
		c-2.1,0.7-1.2,2.4-1.2,3.7c0,0.5,0.1,1.1-0.1,1.6c-0.7,1.4-1.9,2.7-2.2,4.1c-0.3,1.1,0.2,2.6,0.8,3.6c0.8,1.2,2.2,0.7,3.2,0
		c1-0.7,1.8-1.6,2.7-2.4c0.4-0.4,0.8-0.8,1.3-1.2c1.1-0.2,2.3-0.4,3.4-0.6c0.1,0,0.2,0,0.2,0c0.7,0,1.4,0.1,2,0.1
		c-1,2-1.9,4-2.9,5.9c-0.2,0.3-0.5,0.6-0.7,0.9c-1.2,2.3-2.6,4.6-3.5,7c-0.7,1.9,0.5,3.4,2.3,3.6c0.1,0,0.2,0,0.4,0
		c-1,0.9-2.2,1.8-3.4,2.6c-0.3,0.2-0.6,0.4-0.9,0.6c-1-0.6-1.9-1.2-2.7-2c-0.7-0.7-1.2-1.2-2.1-0.5c-0.9,0.8-0.8,1.7,0.2,2.3
		c0.9,0.5,2.2,0.7,2.9,1.3c-1.5,1-3,2-4.5,3.1c0.3,0.3,0.6,0.6,0.9,0.8c0.6,0.2,1.1,0.3,1.7,0.5c0-0.5,0.1-1,0.2-2.1
		c2.4,1.8,4.3,3.2,6.3,4.7c0.1-0.3,0.4-0.9,0.5-1.1c1.1,1.6,2.3,3.3,3.4,4.9c0.9-0.7,1.5-1.2,2.2-1.7c0.2,0.2,0.4,0.4,0.6,0.5
		c-0.2,0.3-0.4,0.6-0.6,0.9c-1.4,1.2-2.6,2.5-4.6,2.5c-0.2-0.8-0.3-1.4-0.5-2c-0.9,1-1.6,2-2.5,2.7c-1.6,1.2-2.1,2.7-1.2,4.7
		c-1.3-0.5-2.4-2.4-3.8-0.6c-0.6-1.2-1.2-1.6-1.8-1l0,0c0,0,0,0,0,0c-0.7-1.2-1.4-2.4-2.3-3.7c-1.1-0.1-2.4-0.2-4-0.3
		c1.9-1.5,3.9-2.2,4.8-4.9c-2.3,0.7-4.2,1-5.7,1.8c-1.6,0.9-3,2.3-4.3,3.6c-0.3,0.3-0.3,1.6,0.1,2c-0.7,1-0.6,2.4,0.3,3.7
		c-0.8-0.3-1.4-0.3-1.8-0.7c-1.2-1.3-2-1.4-2.5,0c-0.5,1.3-1.3,1.9-2.2,2.6c-1.1,0.9-1.7,1.9-2.2,3c-0.9,0.4-1.9,0.2-2.8-0.6
		c-2.2-1.9-4.6-1.1-5.1,1.8c-0.2,1-0.3,2.1-0.3,3.2c0.2,3.7,0.6,7.4,0.9,11.3c-2.7-1-5.6-1.6-5.6-5.4c0-0.8-0.5-1.8-1.1-2.3
		c-0.8-0.7-1.9-1.5-2.8-1.5c-1.4,0.1-2.2,1.3-2.3,2.8c0,0.7-0.2,1.5-0.1,2.2c0.2,1.8,0.6,3.4-1,4.8c-0.4,0.3-0.3,1.3-0.3,2
		c0,0.7,0.2,1.3,0.3,2c0.3,2.1,0.2,4.3,0.9,6.2c0.7,1.9,2.1,3.6,3.4,5.2c0.7,0.8,1.8,1.2,2.7,1.8c0-0.1,0-0.1,0.1-0.2
		c1.6,1.8,3.2,3.5,4.9,5.2c0.2,0,0.3-0.1,0.5-0.1c-0.2-1-0.5-2-0.7-3c1.3-0.4,2.6-0.9,3.9-1.3c0-0.1-0.1-0.3-0.1-0.4H14
		c1.7-0.9,3.2-2.1,5.2-1.4c0.7,0.2,1.5,0.3,2.2,0.4c0.3-1.9,1.3-0.9,2.3-0.7c0.7,0.1,1.7-0.3,2.4-0.8c0.4-0.2,0.6-0.9,0.9-1.5
		c0.5,0.8,1.4,1.5,1.3,2c-0.2,1.4,0.6,1.1,1.3,1.1c0.2-0.2,0.4-0.3,0.5-0.5c-0.1,0.2-0.2,0.5-0.2,0.7c1-0.2,1.9-0.4,2.9-0.5
		c0.2,0.2,0.6,0.6,1,0.9c0.1-0.2,0.1-0.4,0.2-0.6c0.6,0.1,1.2,0.1,1.8,0.2c1.5,0.3,2.9,1.8,4.6,0.5c0.7-0.6,1.4-1.3,1.9-1.8
		c0.1,0,0.1,0,0.2,0c0.8,1.3,1.5,1.1,2.1,0.7c0.7,0.2,1.4,0.4,2.1,0.6c0.5,1.5,0.9,3,1.4,4.5c-0.6,0.9-0.4,1.5,0.2,2.2
		c-3.3,0.2-6.8,0.5-10.4,0.7c0,0.3,0,0.6,0,0.9c3.4,1.9,6.9-0.2,10.8,0c0.3,0.2,1,0.5,2,1c0.1,0.1,0.1,0.2,0.2,0.3
		c-1,0.1-1.6,0.2-1.8,0.3c-0.3,1.5-0.6,2.6-0.9,3.7c-0.4,1.5-1,3.1-1.2,4.6c-0.2,1.6-0.7,3.6,0,4.8c0.9,1.8,1.2,3.3,0.5,5.1
		c-0.2,0.6-0.1,1.3-0.1,2c0,2.5,1.3,3.7,3.8,3.8c-0.2-2.3,1.2-3.5,3.1-4c0.2-0.1,0.4-0.1,0.6-0.2c0,1.1,0,2.2,0,3.2
		c-0.3,1.1-0.8,2.2-1,3.2c0,0.2,0,0.4,0,0.7c-1-0.4-1.8-1.1-2.5-2.1c-1.5,0.8-2.7,0.4-3.8-0.9c-0.9-1-1.9-2.1-3-2.8
		c-2.3-1.4-4.2-0.1-4.2,2.6c0,0.8,0.3,1.5,0.6,2.3c0.9,2.1,3.1,3.7,2,6.5c-0.1,0.4,0.7,1.1,1.1,1.7c0.2,0.2,0.5,0.4,0.6,0.6
		c1.3,2.3,2.5,4.6,3.8,7c-0.3,0.2-1,0.6-1.8,1.2c1.5,2.3-0.9,3.1-1.8,4.7c3.6,0,6.8-0.7,9.8-2.3c1.2-0.7,2.6-0.8,3.6,0
		c-1.1,1.3-2,2.4-2.9,3.5c0.2,0,0.3,0,0.5,0v3.1c0.4-0.1,1.1,0,1.1-0.2c0.8-1.9,2.2-0.9,3.5-0.8c0.2,0,0.4,0,0.7-0.1
		c-0.2-0.4-0.3-0.7-0.6-1.4c1,0.1,1.9,0,2.5,0.4c1.7,1.1,3.3,1.6,5-0.1c0.2-0.2,0.6-0.2,0.6-0.3c0.9,1.1,1.8,1.9,2.5,2.9
		c0.9,1.1,2.1,2.2,2.4,3.5c0.3,1.6,1.2,2.1,2.4,2.2c1.9,0,4-0.1,5.8-0.6c1.4-0.4,2.6-0.6,3.8,0.3c-0.8,2.9,0.8,4.8,3.5,4.2
		c0.8-0.2,1.6-0.3,2.3-0.7c0.5-0.3,1-0.6,1.5-0.7c1,1.6,2.8,2.1,4.3,3c0.4,0.6,0.8,1.2,1.2,1.7c0.3,0.5,0.5,1,0.9,1.4
		c2.1,1.9,4.7,3.2,6.2,5.8c0.2,0.4,0.8,0.7,1.2,1c0.9,0.5,1.8,1,2.7,1.6c1.1,0.7,2.1,1.4,3.1,2.1c0.5,0.4,1.1,0.7,1.6,1
		c0.5,0.3,1.2,0.3,1.9,0c2.2-1,4.1-0.3,6,0.9c1.2,0.8,2.5,1.6,3.8,2.2c2.5,1.1,3,0.8,5.2-1.1c2-1.7,4.5-3,7-4.7
		c0.9,3,3.2,2.8,5.8,2.1c1.5-0.4,1.7,0.7,1.4,1.4c1.7,1.1,3.2,2,4.6,3c-1.2-3,1.2-2.2,2.4-2.6c-2.3-0.1-1.8-1.5-1.5-2.8
		c-0.6-0.5-1.2-0.8-1.7-1.2c0.1-0.3,0.2-0.5,0.2-0.8c0.9,0.2,2.2,0,2.8,0.6c2.4,2.2,4.7,4.5,7.9,5.6c0.2,0,0.1,0.6,0.2,1
		c0.6-0.2,1.2-0.3,1.7-0.4c-0.4-1.2-1.3-2.7-0.9-3.6c1-2.3-0.6-3.1-1.8-4.2c-1.6-1.5-3.3-2.9-5-4.3c-0.4,0-1.3,0.1-1.9-0.3
		c-1.5-1.1-2.8-2.4-4.1-3.7c-0.8-0.8-1.3-2-1.8-2.6c-1.1,0.5-2.2,1.3-2.6,1.1c-1.1-0.7-2-1.9-3-2.9c0.4-0.2,1-0.2,1.1-0.5
		c0.5-1.2,0.8-2.4,1.1-3.7c0.8,0.4,1.4,0.6,2.2,0.9c-0.6,0.8-1.1,1.4-1.8,2.3c0.8,0.2,1.6,0.8,2.1,0.5c1.4-0.7,2.7-1.7,4-2.7
		c1-0.7,1.7-1.7,2.7-2.4c1.2-0.8,1.4-1.7,0.9-3c-0.2-0.5,0-1.2,0-1.9c0.2,0,0.3,0,0.5,0c0.2,0.5,0.5,0.9,0.7,1.4
		c0.4-1,0.5-2.1,1.1-2.8c0.7-0.8,1.5-1.6,2.3-2.4c0.4-0.2,0.8-0.4,1.3-0.6c2.3-0.8,4.6-1.2,7-1.8c0,1.8,1.4,2.3,2.7,2.2
		c2.1-0.2,4.1-0.7,6.2-1.1c0.5-0.1,1.1-0.5,1.5-0.4c1.3,0.5,2,0,2.6-1.2c0.1-0.3,0.7-0.3,1.1-0.5c1.3-1.1,2.7-2.1,4-3.1
		c-0.1,0-0.4-0.2-1.1-0.6c1.3-0.8,2.3-2.1,3.4-2.1c2.2,0,2.8-1.2,3.5-3c-2.2-1.1-1.3-1.8,0.2-2.6c1.3-0.7,2.6-1.6,4-2.6
		c1.1,0.7,2.5,1.6,4,2.5l0,0c0.8,0.1,1.5,0.1,2.2,0.2c-0.3,1.3-0.6,2.5-0.9,3.7c-2.9-0.8-9.1,2.5-8.9,4.8c0.8-0.3,1.7-0.7,2.6-1
		c0.1,0.2,0.2,0.4,0.3,0.7c-1.3,0.7-2.6,1.5-4,2.2c2.9,1.6,4.8-0.8,7-1.4c1-0.3,1.8-1.2,2.7-1.9c-0.1-0.2-0.2-0.4-0.3-0.7
		c-1.6,0.4-3.2,0.8-4.8,1.2c0,0,0-0.1-0.1-0.2c1.5-0.9,3-1.7,4.8-2.7c0.4,0.2,1,0.5,1.3,0.6c0.1,0.7,0.1,1.2,0.2,1.6
		c0.2,0,0.5,0,0.7,0.1c0.2-0.9,0.4-1.7,0.7-2.7c4.5,1.3,7-2.3,10.2-4.3c-3.5,1.1-7,2.1-10.5,3.2c-0.1-0.2-0.2-0.4-0.4-0.6
		c1.3-1.5,2.6-3,3.6-4.2c1.5,0,2.9,0.4,3.9-0.1c1.1-0.5,0.5-1.6,0-2.5c-0.5-0.8,0.7-2,1.6-2.2c1.4-0.3,2.8-0.9,4.1-1.3l-0.6-0.5
		l0.2-0.2c0.2,0.2,0.3,0.4,0.5,0.6c0.4-0.2,0.9-0.4,1.3-0.5c-0.3-0.5-0.6-0.9-1-1.4c-0.1-0.6-0.6-1.4-0.3-1.7c0.5-0.8,1.2-1.5,2-2
		c0.2-0.1,1.1,0.9,1.6,1.4c0.2,0.2,0.5,0.4,0.6,0.5c-0.3,0.6-0.5,1-0.7,1.4c0.5,0.2,1.2,0.6,1.6,0.4c1.2-0.6,2.2-1.4,3.3-2.1v1.2
		c2.5-0.5,5.1-1,7.6-1.5c0.1,0.9,0.2,1.5,0.4,2.2h2v3.1c0.9-0.9,1.2-2,1.9-2.7c1.6-1.8,1.7-2.8,0.6-4.7c0.6-0.6,1.1-1.2,1.6-1.7l0,0
		c0.2-0.2,0.4-0.4,0.7-0.5c0.1-1,0.4-1.4,1.3-0.6c1.6-0.1,1.4-1.4,1.6-2.4c0.3-0.4,0.5-0.7,0.8-1.1c0.1-2.7,0.3-5.4-1.1-8
		c-0.1-0.2,0-0.6,0-1c-1-0.6-2.1-1.2-3-1.9c-0.5-0.4-0.6-1.2-0.9-1.8c0.5-0.2,1-0.4,1.5-0.7c-0.3-1.6-0.4-3.3-1-4.8
		c-0.9-2.5-3.6-2.5-5.5-0.1c-0.2,1.1-0.3,2.1-0.5,3.2c0.9,1.5,0.3,2.9-0.8,4c-1,0.9-2.1,1.7-3.3,2.7c-0.6-4-1.2-7.7-1.9-11.4
		c-0.2-1.3-0.6-2.6-1-4c-1.3,0-2.5,0.1-3.8,0.1c0.8,2.3-0.8,2.1-2.2,1.9c0.2,1.2,0.4,2.3,0.6,3.4c-0.2,0-0.4,0.1-0.5,0.1
		c-1-1.3-2.2-2.5-3-4c-0.4-0.9-0.1-2.3-0.1-3.6c-0.2-0.2-0.7-0.8-1.3-1.3v2.2c-2,0.1-2.5-0.8-1.9-2.2c-1-1.3-2.4-2.3-2.7-3.5
		c-0.6-2.1-0.6-4.3-0.6-6.4c0-1.4,0.8-2.6,0.5-4.3c-0.2-1,1.3-2.2,2.2-3.5c0.2-1.4,0.3-3.1,0.6-4.9c0.3-1.6,1.5-2.6,2.9-2.5
		c0.9,0.1,2,1.1,2.5,2c0.5,0.8,0.9,2.1,0.7,3c-0.5,1.9,0.5,3,1.7,3.9c0.9,0.8,2.1,1.3,3.2,2c0.4-4.6,0.8-9.1,1.2-13.5
		c-1-1.1-2.1-2.2-3.2-3.3c0-0.3,0-0.5,0-0.8c-0.7-1.4-1.8-2.1-2.8-1.5c-0.8-1-1.6-1.9-2.3-2.8c0.5-0.8,0.9-1.8,1.2-2.8
		c0.1-0.4,0.2-1,0.4-1.1c2.1-0.7,1.2-2.4,1.2-3.7c0-0.5-0.1-1.2,0.1-1.6c0.7-1.4,1.9-2.7,2.2-4.1c0.3-1.1-0.2-2.6-0.8-3.6
		c-0.8-1.2-2.2-0.7-3.2,0c-1,0.7-1.8,1.6-2.7,2.4c-0.4,0.4-0.8,0.8-1.3,1.2c-1.1,0.2-2.3,0.4-3.4,0.6c-0.1,0-0.2,0-0.2,0
		c-0.7,0-1.4-0.1-2-0.1c1-2,1.9-4,2.9-5.9c0.2-0.3,0.5-0.6,0.7-0.9c1.2-2.3,2.6-4.6,3.5-7c0.7-1.9-0.5-3.4-2.3-3.6
		c-0.1,0-0.2,0-0.4,0c1-0.9,2.2-1.8,3.4-2.6c2.4-1.6,4.7-3.2,7.1-4.8c-0.3-0.3-0.6-0.6-0.9-0.8c-0.6-0.2-1.1-0.3-1.7-0.5
		c0,0.5-0.1,1-0.2,2.1c-2.4-1.8-4.4-3.2-6.3-4.7c-0.1,0.3-0.4,0.9-0.5,1.1c-1.1-1.6-2.3-3.3-3.4-4.9c-0.9,0.7-1.5,1.2-2.2,1.7
		c-0.2-0.2-0.4-0.4-0.6-0.5c0.2-0.3,0.4-0.6,0.6-0.9c1.4-1.2,2.6-2.5,4.6-2.5c0.2,0.8,0.3,1.4,0.5,2c0.9-1,1.6-2,2.5-2.7
		c1.6-1.2,2.1-2.7,1.2-4.7c1.3,0.5,2.4,2.4,3.8,0.6c0.6,1.2,1.2,1.6,1.8,1l0.1,0c0.1-0.1,0.1-0.1,0.2-0.2c0.3-0.6,0.6-1.2,0.9-1.8
		c0.4-0.1,0.8-0.1,1.2-0.2c1.1-0.1,2.3,0.2,3.4,0.4c0.3,0.1,0.6,0.6,0.8,1c0.2,0.5,0.1,1,0.2,1.5c0.1,0.1,0.2,0.2,0.2,0.2
		c0.5,0.2,0.9,0.3,1.5,0.5c-0.6,1.1-2,2-1,3.1c1.2-0.9,2.2-1.7,3.2-2.4c1.5-1,1.8-2.8,0.6-4.6c0.8,0.3,1.4,0.3,1.8,0.7
		c1.2,1.3,2,1.4,2.5,0c0.5-1.3,1.3-1.8,2.2-2.6c1.1-0.9,1.7-1.9,2.2-3c0.9-0.4,1.9-0.2,2.8,0.6c2.2,1.9,4.6,1,5.1-1.8
		c0.2-1,0.3-2.1,0.3-3.2c-0.2-3.7-0.6-7.4-0.9-11.3c2.7,1,5.6,1.6,5.6,5.4c0,0.8,0.5,1.8,1.1,2.3c0.8,0.7,1.9,1.5,2.9,1.5
		c1.4-0.1,2.2-1.3,2.3-2.8c0-0.7,0.2-1.5,0.1-2.2c-0.2-1.8-0.6-3.4,1-4.8C261.6,161.5,261.5,160.5,261.5,159.8z"/>
	<path class="st0" d="M119,62.3c0.2,0,0.5,0,0.7,0.1c0.1,1,0.2,1.9,0.4,2.9c-0.2,0.1-0.5,0.1-0.7,0.2c-0.5-0.3-1.1-0.6-1.9-1.1
		C118,63.6,118.5,63,119,62.3z"/>
	<path class="st0" d="M103.5,60.3c4.6,1,7.1,4.5,10.1,7.4C110.2,65.4,105.9,64.4,103.5,60.3z"/>
	<path class="st0" d="M113.9,60.9L113.9,60.9c1-0.5,2.4-0.6,1.4-2.1c0.3,0.1,0.8,0.2,1.1,0.2c0,0.8,0.1,1.6,0.2,2.7
		C115.8,62.4,115,62.1,113.9,60.9z"/>
	<path class="st0" d="M119,70.2L119,70.2c-0.8-1.2-1.5-2.3-2.2-3.4c0.2-0.1,0.3-0.2,0.5-0.3C121,68.2,121,68.3,119,70.2z"/>
	<path class="st0" d="M46.8,112.8C46.9,112.8,46.9,112.8,46.8,112.8c0.1-0.1,0.1-0.1,0.2-0.1C47,112.8,46.9,112.8,46.8,112.8z"/>
	<polygon class="st0" points="46.9,115.5 46.9,115.4 47,115.4 	"/>
	<path class="st0" d="M142.4,361.1c-0.2,0-0.5,0-0.7-0.1c-0.1-1-0.2-1.9-0.4-2.9c0.2-0.1,0.5-0.1,0.7-0.2c0.5,0.3,1.1,0.6,1.9,1.1
		C143.4,359.8,142.9,360.4,142.4,361.1z"/>
	<path class="st0" d="M157.9,363.1c-4.6-1-7.1-4.5-10.1-7.4C151.2,358,155.6,359,157.9,363.1z"/>
	<path class="st0" d="M147.5,362.5L147.5,362.5c-1,0.5-2.4,0.6-1.4,2.1c-0.3-0.1-0.8-0.2-1.1-0.2c0-0.8-0.1-1.6-0.2-2.7
		C145.6,361,146.5,361.3,147.5,362.5z"/>
	<path class="st0" d="M142.4,353.2L142.4,353.2c0.8,1.2,1.5,2.3,2.2,3.4c-0.2,0.1-0.3,0.2-0.5,0.3
		C140.5,355.2,140.4,355,142.4,353.2z"/>
	<path class="st0" d="M214.6,310.5C214.6,310.6,214.6,310.6,214.6,310.5c-0.1,0.1-0.1,0.1-0.2,0.1
		C214.5,310.6,214.5,310.6,214.6,310.5z"/>
	<polygon class="st0" points="214.5,307.8 214.6,308 214.4,307.9 	"/>
	<path class="st0" d="M240.4,146.5l0.4,0.8c-0.1,0-0.1,0.1-0.2,0.1l-0.5-0.7C240.1,146.6,240.2,146.5,240.4,146.5z"/>
	<polygon class="st0" points="113.9,84.3 113.9,84.3 113.9,84.3 	"/>
	<path class="st0" d="M195.7,89.4c0.2,0.6,0.4,1.2,0.6,1.9c-0.3,0.1-0.6,0.2-1,0.4c0,0,0,0,0,0c-0.2-0.2-0.4-0.5-0.7-0.7
		c0.2-0.6,0.3-1.1,0.5-1.6C195.3,89.4,195.5,89.4,195.7,89.4z"/>
	<path class="st0" d="M164.1,71.6C164.1,71.6,164.1,71.6,164.1,71.6C164,71.6,164,71.6,164.1,71.6z"/>
	<path class="st0" d="M165.9,74.7c-0.2-0.1-0.5-0.2-0.7-0.3c-0.4-0.2-1.3-0.1-1.5,0.2c-0.6,0.8-1.3,1.1-2.1,1.2
		c0-0.9-0.3-1.6-0.9-2.1C162.7,72.9,164.3,73.8,165.9,74.7z"/>
	<path class="st0" d="M115.8,79.6c0.4,0.2,1,0.5,1.4,0.7c0.5,1.6-0.6,2.9-3.3,4.1c0.1-0.9,0.2-1.9,0.4-2.9c-0.1,0-0.3,0-0.4-0.1
		C114.5,80.8,115.1,80.2,115.8,79.6z"/>
	<path class="st0" d="M112.1,83.3c0-0.2,0.2-0.3,0.3-0.5c0.5,0.6,1,1.1,1.4,1.5c-0.2,0.3-0.4,0.8-0.6,1.2c-0.6,0.1-1.2,0.2-1.8,0.3
		C111.7,84.9,111.9,84.1,112.1,83.3z"/>
	<path class="st0" d="M36.8,237.4c0.1,0,0,1.2,0,2.2c0.3-0.1,0.9-0.2,1.4-0.4c0.6-0.2,1.2-0.6,1.8-0.9c-0.3,0.6-0.6,1.1-0.8,1.7
		c-0.4,0.1-0.8,0.1-1.2,0.2c-1.1,0.1-2.3-0.2-3.4-0.4c-0.3-0.1-0.6-0.6-0.8-0.9c-0.2-0.5-0.1-1-0.2-1.5c0,0,0.1,0,0.1,0
		C34.8,237,35.8,237.2,36.8,237.4z"/>
	<path class="st0" d="M27.3,240.7c0.1,0.2,0.2,0.3,0.2,0.5l-1.3,0.6c-0.1-0.1-0.1-0.2-0.2-0.3C26.5,241.2,26.9,241,27.3,240.7z"/>
	<path class="st0" d="M21.1,276.9l-0.4-0.8c0.1,0,0.1-0.1,0.2-0.1l0.5,0.7C21.3,276.8,21.2,276.8,21.1,276.9z"/>
	<polygon class="st0" points="147.6,339.1 147.6,339.1 147.6,339 	"/>
	<path class="st0" d="M65.7,334c-0.2-0.6-0.4-1.2-0.6-1.9c0.3-0.1,0.6-0.2,1-0.4c0,0,0,0,0,0c0.2,0.2,0.4,0.5,0.7,0.7
		c-0.2,0.6-0.3,1.1-0.5,1.6C66.1,334,65.9,334,65.7,334z"/>
	<path class="st0" d="M97.3,351.8C97.3,351.8,97.3,351.8,97.3,351.8C97.4,351.7,97.4,351.7,97.3,351.8z"/>
	<path class="st0" d="M95.5,348.7c0.2,0.1,0.5,0.2,0.7,0.3c0.4,0.2,1.3,0.1,1.5-0.2c0.6-0.8,1.3-1.1,2.1-1.2c0,0.9,0.3,1.6,0.9,2.1
		C98.7,350.5,97.2,349.5,95.5,348.7z"/>
	<path class="st0" d="M145.6,343.8c-0.4-0.2-1-0.5-1.4-0.7c-0.5-1.6,0.6-2.9,3.3-4.1c-0.1,0.9-0.2,1.9-0.4,2.9c0.1,0,0.3,0,0.4,0.1
		C147,342.6,146.3,343.1,145.6,343.8z"/>
	<path class="st0" d="M149.3,340.1c0,0.2-0.2,0.3-0.3,0.5c-0.5-0.6-1-1.1-1.4-1.5c0.2-0.3,0.4-0.8,0.6-1.2c0.6-0.1,1.2-0.2,1.8-0.3
		C149.8,338.5,149.6,339.3,149.3,340.1z"/>
	<path class="st0" d="M234.2,182.7c-0.1-0.2-0.2-0.3-0.2-0.5l1.3-0.6c0.1,0.1,0.1,0.2,0.2,0.3C235,182.2,234.6,182.4,234.2,182.7z"
		/>
	<path class="st0" d="M81.2,91.7C81.2,91.7,81.2,91.7,81.2,91.7C81.2,91.7,81.2,91.7,81.2,91.7L81.2,91.7z"/>
	<path class="st0" d="M180.3,331.7C180.3,331.7,180.3,331.7,180.3,331.7C180.3,331.7,180.2,331.7,180.3,331.7L180.3,331.7z"/>
	<path class="st0" d="M221,198.2C221,198.2,221,198.2,221,198.2C221,198.2,221,198.2,221,198.2L221,198.2z"/>
	<path class="st0" d="M213.4,272.6C213.4,272.6,213.5,272.6,213.4,272.6L213.4,272.6L213.4,272.6z"/>
	<path class="st0" d="M10.8,239.8c1.6-0.2,3.1-0.7,5.2-1.1l0,0c-0.4-0.5-0.8-1.3-1.3-1.4c-0.9-0.3-2-0.3-3-0.2
		c-0.6,0-1.4,0.1-1.9,0.5c-0.4,0.3-0.7,1.2-0.5,1.6C9.4,239.5,10.3,239.9,10.8,239.8z"/>
</g>
<g id="chinstrap">
	<path class="st1" d="M51.4,312.5c-0.2-2.3,1.2-3.5,3.1-4c4.2-1.2,8.6-1.8,12.7-3.2c4.8-1.6,9.6-3.6,14.1-6c2.6-1.3,3.6-4.1,3.7-7.1
		c0.4-9.5-1.1-18.6-3.2-27.9c-2.5-11-4.4-22.2-4.7-33.6c-0.3-14.5,1.1-28.8,4.9-42.9c1.2-4.4,2.4-8.9,3.7-13.3
		c1.9-6.5,6-11.6,9.8-17c2-2.8,3.5-5.9,4.7-9.1c2.7-7.4,5-15,7.5-22.5c1.2-3.7,2.1-7.6,4.1-10.8c2.9-4.7,6.4-9.2,11.6-11.9
		c9.9-5.2,20.4-7.1,31.5-5.8c3.5,0.4,6.2,2.6,9.1,4.3c2.9,1.7,5.3,4.4,8.4,5.6c3.1,1.3,6.7,1.5,10.1,2c4.5,0.6,8.4,2.5,11.8,5.3
		c1,0.8,2,1.7,3,2.6c-0.1,0.3-0.1,0.5-0.2,0.8c-5.1,1-10.2,2.4-15.3,3c-6.3,0.7-10.2,4-12.8,9.5c-1.3,2.8-2.5,5.7-3.8,8.6
		c-0.9,2.1-0.7,3.9,0.5,6.1c4,7.3,7.7,14.8,9.5,23.1c1.4,6.4,2.1,12.8,2.2,19.4c0.1,9.1,0.4,18.1,0.6,27.1c0.1,4.5,0.5,9.1-0.1,13.6
		c-1,8.3-2.3,16.6-3.9,24.9c-1.1,5.8-2.6,11.5-4.2,17.2c-1.1,3.7-2.6,7.4-4.3,10.9c-2.8,5.7-5.8,11.3-8.7,16.9
		c2.6,0.4,5.7,0.9,8.7,1.5c1.3,0.3,2.5,0.8,3.6,1.5c0.5,0.3,0.7,1.3,1,2c-0.7,0.2-1.3,0.5-2,0.5c-0.6,0-1.1-0.2-1.9-0.3
		c1.2,0.9,2.6,1.5,3.1,2.6c0.5,1,0.1,2.5,0,3.8c-0.2,0-0.5,0.1-0.7,0.1c-0.4-0.3-0.8-0.6-1.3-0.9c-0.9-0.6-1.7-1-2.8,0
		c-0.7,0.7-2,0.9-3.2,1.4c1,0.9,2.2,1.6,2.9,2.6c0.7,1,0.8,2.3,1.3,3.9c-2.8-0.3-4.6-3.6-6.7-1.1c0.4,2.1,0.8,4,1.2,5.9
		c-0.1,0.1-0.3,0.2-0.4,0.3c-2.8-3.6-6.9-1.7-10.3-2.2c-7.2-1.1-14.5-1.8-21.8-2.4c-3.2-0.3-6.4-0.1-9.6,0
		c-8.4,0.2-16.9,0.5-25.3,0.7c-6.4,0.2-12.7-0.8-19-2.1c-1.4-0.3-2.9-0.2-4.3-0.2c-3.8,0.1-7.6,0.3-11.4,0.3c-2.5,0-4.9-0.6-6.5-2.9
		C51.5,313,51.5,312.8,51.4,312.5L51.4,312.5z M124.1,128.9c-0.7,2.5,0,5.3,2,6.6c2.9,2,4.6,4.8,4.7,8.1c0,2.5,0.9,4.2,2.5,5.8
		c0.9,0.9,1.9,1.7,2.7,2.7c2.9,3.4,1.5,8.5-2.6,10.3c-2.7,1.1-5.2,2.6-7.7,4.2c-2.8,1.9-2.9,4-0.7,6.5c1.4,1.6,2.8,3.2,4,4.9
		c4.2,6.3,4.7,13,1.9,19.9c-0.6,1.4-0.3,2.1,0.6,3.1c8.9,9.2,13.1,20.4,14.4,32.9c1,9.9,1.2,19.6,0.2,29.5c-0.6,6-1.6,12-4.7,17.4
		c-2.4,4.1-6.3,4.2-8.7,0.1c-1.3-2.2-2-4.8-2.6-7.2c-1.1-4.6-2.1-9.2-3.1-13.8c-1.7-8-5.8-15.1-9.3-22.4c-3.3-6.9-7-13.6-10.4-20.4
		c-0.9-1.7-1.3-3.8-1.6-5.7c-0.5-3.7-0.6-7.4-1-11.1c-0.1-0.9-0.5-1.8-0.9-3c-0.5,0.5-0.6,0.6-0.6,0.7c-2.7,9.9-2.3,19.4,3.4,28.2
		c3,4.5,4.2,9.4,4.9,14.6c0.8,6,1.2,12.1,1.9,18.1c1.1,8.9,1.8,17.9,5,26.4c0.6,1.6,0.8,3.4,0.8,5.1c0.1,3.7,0.5,4.6,4,6
		c2.3,0.9,3.8,2.7,4.5,5c0.6,2.1,1.1,4.2,1.7,6.7c2.1-0.6,3.7-1.4,5.5-1.6c3.2-0.4,6.4-0.7,9.7-0.8c2.6-0.1,4.8-0.9,6-3.2
		c3.8-7.3,8-14.5,11.3-22.1c6.6-14.9,10.3-30.7,12.9-46.7c0.6-4.1,1-8.3,0.9-12.5c-0.1-7.1-0.8-14.2-0.9-21.3
		c-0.1-9.9,0.2-19.8-1.1-29.7c-0.2-1.6-0.4-3.3-1.1-4.8c-2.8-6.3-5.7-12.6-8.5-18.9c-0.8-1.7-1.2-3.6-1.8-5.4
		c-0.3-0.8-0.5-1.8-1.1-2.2c-2.8-1.9-5.9-3.2-9.3-2.9c-4.8,0.4-9.2-0.9-13.5-2.8C133.9,131.1,129.4,129.1,124.1,128.9L124.1,128.9z
		 M173.5,110.7c-7-1.6-13.4-2.5-19.9-0.2c-3.9,1.4-7.8,2.6-11.6,4.1c-4.9,2.1-10.2,3.5-14,7.7c-1.7,1.9-1.5,3.4,1,4.4
		c1.4,0.5,3,0.9,4.2,1.7c5.8,3.4,12.1,4.4,18.7,4.7c3.1,0.1,6.2,0.5,9.2,1.3c2.1,0.6,3,0.6,4-1.5c1.4-3,2.9-6,4.6-9.4
		c-5-0.8-10.2-1.6-15.6-2.5c0.8-0.9,1.5-2,2.4-2.9C160.8,113.1,167.3,112.9,173.5,110.7L173.5,110.7z M163.9,302.1
		c-1.8-0.7-3.3-1.2-4.8-1.8c-2.6-1-4.1-0.7-5.8,1.6c-1,1.5-1.9,3-2.9,4.5c-1.5,2.5-2.5,2.9-5.2,2.4c-0.9-0.2-1.8-0.3-2.8-0.4
		c-4.7-0.5-11.4,3.6-13,7.8c8.1,0.7,16.1,1.5,24.4,2.3c-1-2.6-0.6-3.4,1.8-3.8c1.5-0.3,3-0.5,4.8-0.8c-0.5-1.2-0.7-2.2-1.3-3
		c-0.6-0.8-1.6-1.3-2.4-1.9c0.2-0.2,0.3-0.4,0.5-0.6c1,0.3,1.9,0.7,2.8,1c1.4-1,2.8-1.9,4.1-2.9
		C164.2,304.9,164.1,303.4,163.9,302.1L163.9,302.1z"/>
	<path class="st1" d="M133.9,45.2c0,1.2,0.2,2.1-0.1,3c-0.2,0.6-0.9,1.1-1.3,1.7c-0.5-0.5-1.4-1-1.5-1.5c-0.3-2.2-0.3-4.5-0.4-6.8
		c-0.1-3.5,0-7-0.1-10.6c0-1.5,0.3-2.4,2-2.6c1.2-0.1,2.3-0.8,3.4-1c3.3-0.4,6.1,2.1,6.3,5.5c0.2,3.7-1.7,6.5-3.9,9.1
		c-0.4,0.5-0.8,1-1.3,1.6c1.4,1,2.9,1.9,4.2,3.1c0.5,0.5,0.5,1.4,0.8,2.2c-0.8,0.1-1.8,0.5-2.4,0.2C137.7,48,135.9,46.6,133.9,45.2
		L133.9,45.2z M133.6,42.5c0.2,0.1,0.5,0.2,0.7,0.3c1.5-2.2,3.1-4.3,4.4-6.7c0.5-1,0.7-2.3,0.5-3.4c-0.2-1.5-1.4-2.4-2.9-2.1
		c-1.1,0.2-2.7,0.1-2.8,1.9C133.5,35.8,133.6,39.1,133.6,42.5L133.6,42.5z"/>
	<path class="st1" d="M101.3,53.3c-0.9-0.7-1.9-1.3-2.6-2.1c-2-2.4-3.9-4.8-6.3-7.1c0.8,2.8,1.5,5.5,2.3,8.3
		c0.3,1.1,0.8,2.3-0.8,2.8c-1.4,0.4-1.8-0.8-2.1-1.8c-1-4.2-2.1-8.4-2.9-12.6c-0.2-0.8,0.5-1.9,0.8-2.8c0.9,0.3,2.1,0.4,2.7,1
		c2.2,2.4,4.2,4.9,6.7,7.8c-0.7-3.4-1.3-6.2-1.9-9c-0.1-0.4-0.3-0.8-0.2-1.2c0.3-0.7,0.7-1.2,1.1-1.9c0.6,0.4,1.6,0.7,1.8,1.2
		c1.2,4.9,2.3,9.8,3.4,14.7C103.7,52.3,103,53.3,101.3,53.3L101.3,53.3L101.3,53.3z"/>
	<path class="st1" d="M73.6,50.3c-1,0.8-1.8,1.4-2.9,2.2c1,2.4,1.9,4.9,2.9,7.3c0.5,1.1,0.9,2.3-0.6,2.8c-1.3,0.5-1.8-0.5-2.2-1.6
		c-2-5.5-4-11-5.9-16.5c-0.2-0.4-0.4-1-0.3-1.3c0.2-0.8,0.7-1.5,1-2.3c0.6,0.5,1.6,0.9,1.8,1.6c0.8,2.2,1.4,4.5,2.2,7.1
		c1-0.9,1.9-1.6,2.8-2.3c-0.7-2-1.3-4-1.9-6.1c-0.3-1.1-0.2-2.2,1.1-2.3c0.6,0,1.6,0.9,1.8,1.5c2,5,3.8,10,5.7,15.1
		c0.4,1,1,2.1-0.3,2.8c-1.4,0.7-2-0.4-2.5-1.5C75.4,54.6,74.5,52.6,73.6,50.3L73.6,50.3z"/>
	<path class="st1" d="M171.8,40.1c-0.5,0.9-1.1,2.8-2.3,4.1c-1.9,2-4.2,3.7-6.5,5.2c-1.1,0.7-1.6,1.4-1.6,2.6c0,0.6,0,1.3-0.3,1.7
		c-0.4,0.5-1.3,1.1-1.6,0.9c-0.6-0.3-1.3-1.2-1.2-1.7c0.7-6,1.6-12,2.4-18c0.1-0.5,0.5-1.3,0.9-1.4c2.4-0.7,4.9-0.9,7.2,0.4
		C170.8,35.1,171.7,36.9,171.8,40.1L171.8,40.1z M162.1,45.9c0.2,0.1,0.4,0.2,0.7,0.4c1.7-1.6,3.5-3.2,5.1-4.9
		c1-1.1,1.5-2.7,0.4-3.8c-0.9-0.9-2.3-1.2-3.6-1.5c-0.3-0.1-1.1,0.6-1.2,1C162.9,40.1,162.6,43,162.1,45.9L162.1,45.9z"/>
	<path class="st1" d="M151.2,48.7c-1.4-0.3-2.9-0.5-4.3-0.8c0.1,0.2,0.1,0.4,0.2,0.5c-0.9,0.5-2.1,1.8-2.8,1.5
		c-1.8-0.7-0.8-2.2-0.3-3.3c1.6-4,3.3-8,5-11.9c0.4-0.9,0.7-1.9,1.3-2.7c0.5-0.6,1.5-1.5,2.1-1.3c0.6,0.1,1.4,1.2,1.6,2
		c0.3,1.2,0.3,2.5,0.4,3.8c0.2,3.5,0.5,7,0.6,10.5c0,1.3-0.4,2.6-0.8,3.8c-0.2,0.5-1,1-1.5,1c-0.5,0-1.2-0.6-1.4-1.1
		C151.1,50.2,151.2,49.5,151.2,48.7L151.2,48.7z M151.4,37.9c-0.1,0-0.3-0.1-0.4-0.1c-1,2.4-2,4.8-3,7.3c1.3,0.2,2.3,0.4,3.4,0.6
		V37.9L151.4,37.9z"/>
	<path class="st1" d="M56,48c-0.5,1.3-1.1,2.2-1.2,3.1c-0.8,4.3,0.3,8.2,2.6,11.8c1.4,2.2,3,2.2,4.9,0.2c0.8-0.9,1.4-2,2.3-2.7
		c0.5-0.4,1.4-0.3,2.1-0.4c0.1,0.7,0.6,1.7,0.2,2.1c-1.2,1.6-2.6,3.3-4.2,4.5c-2,1.6-4.8,1.2-6.7-0.7c-3.8-3.7-5.7-12.5-3.6-17.3
		c0.8-1.7,1.8-3.2,4-3.1c1.9,0.1,3.5,1.1,4.2,2.9c0.2,0.6-0.3,1.6-0.5,2.4c-0.7-0.3-1.4-0.6-2.1-1C57.3,49.5,56.8,48.9,56,48L56,48z
		"/>
	<path class="st1" d="M108.8,29.9c2.6,0,6,2.6,6.5,5.1c0.1,0.6-0.4,1.4-0.7,2c-0.7-0.3-1.5-0.4-2-0.8c-0.8-0.8-1.3-1.9-2.1-2.6
		c-1.8-1.5-3.9-0.6-3.8,1.8c0,1.6,0.6,3.3,1.4,4.7c1.2,2.2,2.9,4.1,4.3,6.2c1.4,2.2,0.9,4.5-1.2,5.9c-1.3,0.9-2.6,0.8-3.6-0.3
		c-0.4-0.5-0.7-1.4-0.5-2c0.1-0.3,1.2-0.4,1.8-0.6c0.3-0.1,0.7,0,1,0c0-0.5,0.1-1.1-0.1-1.4c-1.1-1.7-2.6-3.3-3.5-5.1
		c-1.1-2-2.2-4.2-2.6-6.4C103.1,32.9,105.7,29.9,108.8,29.9L108.8,29.9z"/>
	<path class="st1" d="M123.5,30.5c0.7,6,1.3,11.9,2,17.7c0.1,1.1,0.3,2.3-1.1,2.5c-1.4,0.2-1.7-1-1.8-2.1
		c-0.7-5.9-1.4-11.7-2.1-17.7c-0.8,0.2-1.7,0.7-2.5,0.6c-0.7,0-1.4-0.6-2.1-0.9c0.4-0.6,0.6-1.6,1.2-1.8c1.9-0.6,3.8-1,5.8-1.4
		c1.4-0.3,2.9-0.7,4.3-0.8c0.6,0,1.3,0.4,2,0.6c-0.3,0.7-0.4,1.8-1,2.1C126.9,29.9,125.4,30.1,123.5,30.5z"/>
	<path class="st1" d="M171,51.2c1.8-6.5,3.4-12.8,5.2-19c0.3-1.1,1.1-2,2.4-1.4c1.2,0.6,0.7,1.6,0.4,2.6c-1.5,5.4-2.9,10.9-4.3,16.3
		c-0.2,0.7-0.2,1.6-0.6,2.1c-0.4,0.5-1.2,1-1.9,0.9C171.8,52.7,171.4,51.8,171,51.2L171,51.2z"/>
	<path class="st1" d="M81.5,38.9c0.4,0.6,1,1.1,1.2,1.7c1.7,4.6,3.3,9.2,4.9,13.9c0.2,0.6-0.3,1.5-0.5,2.2c-0.7-0.3-1.9-0.4-2.1-0.9
		c-1.8-4.8-3.5-9.6-5.1-14.4c-0.2-0.7,0.4-1.6,0.7-2.4C80.9,38.9,81.2,38.9,81.5,38.9L81.5,38.9z"/>
	<path class="st0" d="M68.6,348.1c1.4-2,0.3-3.5-0.6-5.3c-1.7,0.2-3.9,1.4-4.5-1.7c4.1-0.9,5.3-0.4,7.1,3.2c0.3,0.6,0.9,1.1,1.2,1.8
		c0.3,0.5,0.6,1.3,0.4,1.6c-0.3,0.4-1.1,0.6-1.7,0.7C70,348.5,69.3,348.3,68.6,348.1L68.6,348.1z"/>
	<path class="st0" d="M170.3,73.6c2.9,0.3,5.7,3.7,5.1,6c1.5,0.5,3,1,2.9,3.2c-2.9-2.3-5.6-4.4-7.9-6.2L170.3,73.6L170.3,73.6
		L170.3,73.6z"/>
	<path class="st0" d="M30.3,285.9c-0.5,0.1-1,0.1-2,0.3c0.7-0.5,0.9-0.9,1.2-0.9c2-0.1,4.1-0.2,6.1-0.2c0.6,0,1.2,0.5,1.8,0.8
		c-0.4,0.6-0.8,1.3-1.2,1.9c0.1,0.1,0.4,0.5,0.6,1c-0.5,0.2-1,0.7-1.5,0.6C33.4,288.6,31.3,288.3,30.3,285.9L30.3,285.9z"/>
	<path class="st0" d="M226.6,142.8c0.1-1.2,0.7-2,2.3-1.4c0.3,0.1,0.8-0.1,1.1-0.1c1,0.1,2.1,0,3,0.3c0.3,0.1,0.7,1.3,0.5,1.6
		c-0.3,0.4-1.1,0.9-1.7,0.8C230.2,143.8,228.6,143.3,226.6,142.8z"/>
	<path class="st0" d="M44.4,290.4c0.7,0.5,1.3,1,1.8,1.3c-1.5,1.4-2.7,2.6-4.1,3.6c-0.4,0.3-1.4,0.3-1.7,0.1
		c-0.4-0.3-0.6-1.4-0.4-1.7c0.6-0.8,1.4-1.3,2.3-1.8c0.6-0.4,1.3-0.6,2-0.9C44.4,290.8,44.4,290.6,44.4,290.4L44.4,290.4z"/>
	<path class="st0" d="M217.4,320h-1.8c-0.1,1.8-2.9,4.6-4.6,4.7c-0.3,0-1-0.5-1-0.8c0.2-1.8,1.1-2.3,2.9-2c0.4,0.1,1.1-0.4,1.2-0.7
		C214.6,319.3,215.6,318.8,217.4,320L217.4,320z"/>
	<path class="st0" d="M213.1,191.8c-0.4-0.2-0.9-0.5-1.5-0.8c1.1-1.2,2.1-2.4,3.2-3.7c0.1,0,0.7,0,1.1,0.2c0.6,0.3,1.1,0.8,1.6,1.2
		c-0.5,0.6-0.9,1.3-1.5,1.6c-0.9,0.4-1.9,0.6-2.9,0.9C213,191.4,213,191.6,213.1,191.8L213.1,191.8z M215.3,189
		c0.4,0.2,0.6,0.4,0.8,0.3c0.2-0.1,0.3-0.3,0.4-0.4c-0.2-0.1-0.4-0.2-0.5-0.2C215.8,188.7,215.6,188.8,215.3,189L215.3,189z"/>
	<path class="st0" d="M118.9,53.5c2.3-0.8,4.3-0.4,5.9,1.5C123.6,57,120.6,56.2,118.9,53.5z"/>
	<path class="st0" d="M182.8,335.3c-0.3-0.1-0.6-0.3-0.9-0.5c-0.3-0.2-0.6-0.5-0.9-0.8c0.3-0.2,0.5-0.6,0.8-0.7
		c1.1-0.4,2.3-0.9,3.4-1.1c0.7-0.1,1.4,0.4,2.1,0.7c-0.5,0.4-1,1-1.6,1.2c-1,0.3-2.1,0.4-3.1,0.6L182.8,335.3L182.8,335.3z"/>
	<path class="st0" d="M180.3,331.7c2.6-0.9,5.2-1.8,7.8-2.6c0.5-0.2,1.1-0.1,1.6-0.2c0.1,0.2,0.1,0.4,0.1,0.6c-2.6,1-5.2,2-7.9,2.9
		C181.7,332.4,180.1,333.6,180.3,331.7L180.3,331.7L180.3,331.7z"/>
	<path class="st1" d="M173.9,56.2c-1.1,0.8-1.8,1.5-2.4,1.5c-0.4,0-1.3-1-1.2-1.6c0-0.5,0.9-1.4,1.5-1.4
		C172.3,54.6,172.9,55.4,173.9,56.2L173.9,56.2z"/>
	<path class="st0" d="M179.3,82.9c1.5,1.1,1.9,2.1,0.9,3.3c-0.1,0.2-1.1,0.2-1.2,0C178.1,85,179,84.1,179.3,82.9z"/>
	<path class="st0" d="M220.3,314.3c0.5,0.2,1.5,0.2,1.7,0.6c0.7,1.4-0.1,2.3-1.5,2.9C220.5,316.8,220.4,315.8,220.3,314.3
		L220.3,314.3z"/>
	<path class="st0" d="M209.4,325c-0.7,0.6-1.3,1.4-2.1,1.7c-0.5,0.2-1.2-0.2-1.9-0.4l0.1-0.6c1.2-0.4,2.4-0.8,3.6-1.2
		C209.2,324.6,209.3,324.8,209.4,325L209.4,325z"/>
	<path class="st0" d="M223.9,197.9c-0.4,0.3-0.9,0.5-1.3,0.8c-0.5-0.1-1-0.3-1.5-0.5l0,0c0.5-0.5,0.9-1.1,1.5-1.6
		c0.5-0.5,1.1-0.8,1.7-1.2l0,0C224.1,196.2,224,197,223.9,197.9z"/>
	<path class="st0" d="M24.9,284.6c-1.4,0.2-2-0.6-1.9-1.9c0-0.4,0.9-0.8,1.6-1.4C24.7,282.8,24.8,283.7,24.9,284.6z"/>
	<path class="st0" d="M41.7,289c-2.1,1.9-3.2,1.8-3.8-0.3C39.1,288.8,40.2,288.9,41.7,289z"/>
	<path class="st0" d="M65.2,142.4c-0.3,0.3-0.6,0.8-0.8,0.8c-1.4-0.4-2.8-0.9-4.2-1.7c1.6,0.3,3.2,0.6,4.9,0.9L65.2,142.4z"/>
	<path class="st0" d="M116.1,53.2c0.2-0.8,0.4-1.5,0.7-2.3c0.2-0.1,0.3-0.1,0.5-0.2c0.3,0.6,0.9,1.3,0.8,1.9c-0.1,0.4-1,0.7-1.6,1.1
		C116.4,53.6,116.2,53.4,116.1,53.2L116.1,53.2z"/>
	<path class="st0" d="M170.3,73.5c-1.1-0.6-2.2-1.2-3.4-1.9C169.1,70.6,170.1,71.2,170.3,73.5L170.3,73.5L170.3,73.5z"/>
	<path class="st0" d="M237.4,304.3c-0.2,0.8-0.5,1.5-0.7,2.3c0-0.7,0-1.4,0-2.1l0,0C236.9,304.5,237.2,304.4,237.4,304.3z"/>
	<path class="st0" d="M224.3,195.4c0.3-0.2,0.5-0.4,0.8-0.6c0.1,0.1,0.1,0.2,0.2,0.4C224.9,195.2,224.6,195.3,224.3,195.4
		L224.3,195.4L224.3,195.4z"/>
	<path class="st0" d="M212.1,193.3l-0.8,0.1c0-0.1,0-0.2,0-0.3h0.8C212.1,193.2,212.1,193.3,212.1,193.3L212.1,193.3z"/>
	<path class="st0" d="M197.9,320.5c-0.1,0.1-0.2,0.2-0.4,0.3c-0.1-0.1-0.1-0.1-0.2-0.2C197.5,320.6,197.7,320.5,197.9,320.5
		L197.9,320.5L197.9,320.5z"/>
	<path class="st2" d="M260,166.9c0.1-0.1,0.2-0.2,0.2-0.2c0.1,0,0.2,0.1,0.2,0.2c0,0-0.1,0.1-0.1,0.1
		C260.2,167.1,260.1,167,260,166.9L260,166.9z"/>
	<path class="st0" d="M219.9,197c0.1,0,0.2,0.1,0.3,0.1C220.1,197.1,220,197.1,219.9,197L219.9,197L219.9,197z"/>
	<path class="st0" d="M219.9,197c-0.1-0.1-0.2-0.1-0.3-0.2C219.7,196.9,219.8,197,219.9,197L219.9,197z"/>
	<path class="st0" d="M228,186.3c-0.1,0.1-0.2,0.1-0.3,0.2c0-0.1,0-0.3,0.1-0.4C227.8,186.2,227.9,186.3,228,186.3L228,186.3z"/>
	<path class="st0" d="M197.9,320.5c0.1-0.1,0.3-0.3,0.4-0.4l0,0C198.1,320.2,198,320.4,197.9,320.5L197.9,320.5z"/>
	<polygon class="st0" points="219.3,315.2 219.2,315.1 219.3,315.1 	"/>
	<path class="st3" d="M238.3,287.1c-0.2-0.2-0.5-0.4-0.7-0.6c-0.3-1.6-0.4-3.3-1-4.8c-0.9-2.5-3.6-2.5-5.5-0.1
		c-0.8,0.1-1.6,0.3-2.4,0.4c0.3,0.8,0.4,1.5,0.8,2.2c0.1,0.3,0.7,0.4,1.1,0.5c0.9,1.5,0.3,2.9-0.8,4c-1,0.9-2.1,1.7-3.3,2.7
		c-0.6-4-1.2-7.7-1.9-11.4c-0.2-1.3-0.6-2.6-1-4c1.4,0.4,2.8,0.9,3.7,1.1c0.9-0.2,1.7-0.7,2.1-0.5c2.3,1.2,2.6,1.2,4.1-0.9l0,0
		c0.3-0.1,0.5-0.2,0.8-0.4c0.1,1.2,0.2,2.3,1.9,2.4c0.3,0,0.5,1.1,0.8,1.9c0.5-0.2,1.4-0.6,2.3-1c1.6,2.6,0.8,5.1-0.4,7.5
		c-0.2,0.5-0.2,1-0.4,1.5C238.5,287.6,238.4,287.4,238.3,287.1L238.3,287.1z"/>
	<path class="st3" d="M110.8,336.8c1-2.6,0.3-5.8,3.9-6.7c0.1,0.6,0.1,1,0.2,1.8c1-0.6,1.8-1,2.6-1.5c1.2,0.6,2.4,1.2,3.7,1.9
		c-0.6,2-2.5,2.3-4.1,2.8c-1.2,0.4-2,0.6-1.2,2.1c0.2,0.3-0.2,1-0.4,1.5c-0.2-0.1-0.4-0.1-0.6-0.2c0.1-0.7,0.2-1.4,0.3-2.2
		C113.7,336.5,112.4,336.6,110.8,336.8L110.8,336.8z"/>
	<path class="st3" d="M113.7,67.7c-3.4-2.3-7.8-3.3-10.1-7.4C108.2,61.2,110.7,64.8,113.7,67.7z"/>
	<path class="st3" d="M240,290.9c0.5,0.2,1.2,0.3,1.4,0.6c0.8,1.4,1.7,2.8,2.2,4.4c0.7,2.2-0.8,3.2-2.5,3.9c0.1-2.7,0.3-5.5-1.1-8
		C239.8,291.6,240,291.2,240,290.9z"/>
	<path class="st3" d="M240.3,300.9c0.6,0.3,1.3,0.6,1.9,1c0.5,0.3,1.3,1,1.2,1.2c-0.3,0.6-0.8,1.3-1.5,1.6c-0.8,0.5-1.8,0.6-2.8,0.9
		c-0.1-0.8-0.3-1.6-0.4-2.4C240.3,303.3,240.1,302,240.3,300.9L240.3,300.9z"/>
	<path class="st3" d="M113.9,84.4c0.1-1,0.2-1.9,0.4-2.9c-0.1,0-0.3,0-0.4-0.1c0.6-0.6,1.2-1.2,2-1.8c0.4,0.2,1,0.5,1.4,0.7
		C117.7,81.8,116.6,83.1,113.9,84.4L113.9,84.4L113.9,84.4z"/>
	<path class="st3" d="M199.9,230.9c-0.7-2-1.3-3.5-2-5.6C200.9,227.2,201.3,228.1,199.9,230.9z"/>
	<path class="st3" d="M119,70.2c-0.8-1.2-1.5-2.3-2.3-3.4c0.2-0.1,0.3-0.2,0.5-0.3C121,68.2,121,68.3,119,70.2L119,70.2z"/>
	<path class="st3" d="M113.9,84.3c-0.7,0.9-0.8,2.5-2.6,2.1c0.3-1,0.5-2.1,0.8-3.1c0.1-0.2,0.2-0.3,0.3-0.5
		C113,83.4,113.4,83.9,113.9,84.3L113.9,84.3z"/>
	<path class="st2" d="M230.6,284.9c-0.4-0.2-0.9-0.2-1.1-0.5c-0.4-0.7-0.6-1.5-0.8-2.2c0.8-0.1,1.6-0.3,2.4-0.4
		C230.9,282.7,230.8,283.8,230.6,284.9L230.6,284.9z"/>
	<path class="st3" d="M113.9,60.8c1-0.5,2.4-0.6,1.4-2.1c0.3,0.1,0.8,0.2,1.1,0.2c0,0.8,0.1,1.6,0.2,2.7
		C115.9,62.4,115,62.1,113.9,60.8L113.9,60.8z"/>
	<path class="st3" d="M119.4,65.4c-0.6-0.3-1.1-0.6-1.9-1.1c0.5-0.7,1.1-1.4,1.6-2c0.2,0,0.5,0,0.7,0.1c0.1,1,0.2,1.9,0.3,2.9
		C119.8,65.3,119.6,65.4,119.4,65.4L119.4,65.4z"/>
	<path class="st3" d="M56.9,284.1c-1.7,0.4-3,0.6-4.8,1c1.1-0.9,1.7-1.4,2.5-2.1C55.1,283.3,55.8,283.6,56.9,284.1z"/>
	<path class="st3" d="M65.1,332.1c0.5-0.2,1-0.4,2.1-0.8c-0.3,1-0.6,1.9-0.8,2.6c-0.2,0-0.4,0-0.6,0
		C65.5,333.3,65.3,332.7,65.1,332.1L65.1,332.1L65.1,332.1z"/>
	<path class="st3" d="M233.9,182.2l1.3-0.6c0.1,0.1,0.1,0.2,0.2,0.3c-0.4,0.2-0.8,0.5-1.2,0.8C234.1,182.5,234,182.3,233.9,182.2
		L233.9,182.2z"/>
	<path class="st3" d="M160.5,76.3v1.2c-0.1,0-0.2,0-0.3,0c0-0.4-0.1-0.8-0.1-1.2C160.2,76.3,160.3,76.3,160.5,76.3L160.5,76.3z"/>
	<path class="st3" d="M221.1,198.2c0.5,0.1,1,0.3,1.5,0.5c-0.2,0.1-0.4,0.3-0.6,0.4C221.7,198.8,221.4,198.5,221.1,198.2
		L221.1,198.2z"/>
	<path class="st3" d="M21.1,276.9l-0.4-0.8c0.1,0,0.1-0.1,0.2-0.1l0.5,0.7C21.3,276.8,21.2,276.8,21.1,276.9z"/>
	<path class="st3" d="M237.4,304.3l-0.8,0.2c0.2-0.2,0.4-0.4,0.7-0.5C237.4,304.1,237.4,304.2,237.4,304.3L237.4,304.3z"/>
	<path class="st3" d="M214.2,312.6l-0.6-0.5l0.2-0.2c0.2,0.2,0.3,0.4,0.5,0.6L214.2,312.6L214.2,312.6z"/>
	<path class="st3" d="M202.1,117c-0.3,0-0.7,0.1-1,0.1c0-0.1,0-0.2-0.1-0.3c0.3-0.1,0.6-0.2,0.9-0.2C202,116.7,202,116.9,202.1,117
		L202.1,117z"/>
	<path class="st3" d="M74.3,145c0.4,0,0.9,0.1,1.3,0.1c0,0.1,0,0.2-0.1,0.4c-0.5-0.1-0.9-0.2-1.4-0.3
		C74.2,145.2,74.2,145.1,74.3,145L74.3,145z"/>
	<path class="st3" d="M74.2,145.2c-0.4-0.1-0.9-0.1-1.3-0.2l0.1-0.4c0.4,0.1,0.9,0.3,1.3,0.4C74.2,145.1,74.2,145.2,74.2,145.2
		L74.2,145.2z"/>
	<path class="st3" d="M219.8,182.4c-0.1,0.1-0.2,0.1-0.3,0.2c0-0.1-0.1-0.3-0.1-0.4c0-0.1,0.2-0.1,0.3-0.1
		C219.8,182.1,219.8,182.3,219.8,182.4L219.8,182.4z"/>
	<path class="st3" d="M29.7,278.4c0.2-0.2,0.4-0.3,0.5-0.5c-0.1,0.2-0.2,0.5-0.2,0.7C29.9,278.6,29.8,278.5,29.7,278.4L29.7,278.4z"
		/>
	<path class="st3" d="M220.7,241.8c0-0.3,0-0.5,0-0.8l0,0C220.7,241.2,220.7,241.5,220.7,241.8L220.7,241.8z"/>
	<path class="st3" d="M164.3,71.5c-0.1,0.1-0.3,0.1-0.1,0.1C164,71.7,164.1,71.6,164.3,71.5L164.3,71.5z"/>
	<path class="st3" d="M219.3,147.6c-0.2-0.1-0.4-0.3-0.5-0.4c0.2,0.1,0.5,0.1,0.7,0.2C219.4,147.5,219.4,147.6,219.3,147.6
		L219.3,147.6z"/>
	<path class="st3" d="M68.9,152.4c0,0-0.1,0-0.1-0.1c0.1,0,0.1-0.1,0.2-0.1C68.9,152.3,68.9,152.4,68.9,152.4L68.9,152.4z"/>
	<polygon class="st3" points="68.2,164.7 68.3,164.7 68.3,164.6 	"/>
	<path class="st3" d="M65.1,332.1c0,0-0.1,0-0.1-0.1C65,332.1,65,332.1,65.1,332.1L65.1,332.1L65.1,332.1z"/>
	<path class="st3" d="M120.7,74.3c0,0,0.1,0.1,0.1,0.1C120.8,74.4,120.7,74.4,120.7,74.3C120.7,74.3,120.7,74.3,120.7,74.3z"/>
	<path class="st3" d="M214.7,310.5c0,0-0.1,0.1-0.1,0.1c0,0-0.1,0-0.1,0C214.5,310.6,214.6,310.6,214.7,310.5L214.7,310.5
		L214.7,310.5z"/>
	<polygon class="st3" points="214.5,307.8 214.6,308 214.4,308 	"/>
	<path class="st3" d="M124.1,128.9c5.2,0.1,9.8,2.2,14.3,4.2c4.3,1.9,8.7,3.2,13.5,2.8c3.5-0.3,6.5,1,9.3,2.9
		c0.6,0.4,0.9,1.4,1.1,2.2c0.6,1.8,1.1,3.7,1.8,5.4c2.8,6.3,5.8,12.5,8.5,18.9c0.6,1.5,0.9,3.2,1.1,4.8c1.3,9.9,1,19.8,1.1,29.7
		c0,7.1,0.8,14.2,0.9,21.3c0.1,4.2-0.3,8.4-0.9,12.5c-2.5,16.1-6.3,31.8-12.9,46.7c-3.3,7.6-7.5,14.8-11.3,22.1
		c-1.2,2.4-3.4,3.1-6,3.2c-3.2,0.2-6.5,0.4-9.7,0.8c-1.8,0.2-3.4,1-5.5,1.6c-0.6-2.5-1.1-4.6-1.7-6.7c-0.7-2.3-2.2-4.1-4.5-5
		c-3.5-1.4-3.9-2.2-4-6c0-1.7-0.2-3.5-0.8-5.1c-3.1-8.5-3.9-17.5-5-26.4c-0.7-6-1.1-12.1-1.9-18.1c-0.7-5.1-1.9-10-4.9-14.6
		c-5.8-8.7-6.2-18.3-3.4-28.2c0-0.1,0.2-0.2,0.6-0.7c0.4,1.1,0.8,2,0.9,3c0.4,3.7,0.5,7.4,1,11.1c0.2,1.9,0.7,3.9,1.6,5.7
		c3.4,6.8,7.1,13.5,10.4,20.4c3.5,7.3,7.6,14.3,9.3,22.4c1,4.6,1.9,9.2,3.1,13.8c0.6,2.5,1.4,5.1,2.6,7.2c2.4,4.1,6.3,4,8.7-0.1
		c3.1-5.4,4.1-11.3,4.7-17.4c0.9-9.8,0.8-19.6-0.2-29.5c-1.3-12.6-5.6-23.7-14.4-32.9c-0.9-0.9-1.2-1.6-0.6-3.1
		c2.8-6.9,2.3-13.6-1.9-19.9c-1.2-1.8-2.6-3.4-4-4.9c-2.2-2.5-2.1-4.6,0.7-6.5c2.4-1.6,5-3.1,7.7-4.2c4.1-1.8,5.5-6.9,2.6-10.3
		c-0.8-1-1.8-1.8-2.7-2.7c-1.6-1.6-2.5-3.3-2.5-5.8c-0.1-3.3-1.8-6.1-4.7-8.1C124.2,134.2,123.4,131.5,124.1,128.9L124.1,128.9z"/>
	<path class="st3" d="M173.5,110.7c-6.2,2.2-12.6,2.4-17.1,7.2c-0.9,0.9-1.6,2-2.4,2.9c5.4,0.8,10.6,1.7,15.6,2.5
		c-1.7,3.4-3.1,6.4-4.6,9.5c-1,2.1-1.9,2.1-4,1.5c-3-0.8-6.1-1.2-9.2-1.3c-6.6-0.3-12.9-1.3-18.7-4.7c-1.3-0.8-2.8-1.1-4.2-1.7
		c-2.4-0.9-2.7-2.5-1-4.4c3.8-4.2,9.1-5.6,14-7.7c3.8-1.6,7.8-2.8,11.6-4.1C160.1,108.2,166.5,109.1,173.5,110.7L173.5,110.7z
		 M145.9,122.2c0.9-0.7,2.2-1.4,3.1-2.5c0.5-0.6,0.6-1.9,0.3-2.7c-0.7-1.4-4.1-2.3-5.3-1.3c-1.4,1.1-3.5,2.2-3.1,4.2
		C141.2,122.2,143.6,121.6,145.9,122.2z"/>
	<path class="st3" d="M163.9,302.1c0.1,1.3,0.3,2.8,0.5,4.4c-1.3,0.9-2.7,1.9-4.1,2.9c-0.9-0.3-1.9-0.6-2.8-1
		c-0.2,0.2-0.3,0.4-0.5,0.6c0.8,0.6,1.8,1.1,2.4,1.9c0.6,0.8,0.8,1.8,1.3,3c-1.9,0.3-3.4,0.5-4.8,0.8c-2.4,0.4-2.8,1.1-1.8,3.8
		c-8.3-0.8-16.4-1.5-24.4-2.3c1.6-4.2,8.3-8.3,13-7.8c0.9,0.1,1.9,0.3,2.8,0.4c2.7,0.5,3.7,0.1,5.2-2.4c0.9-1.5,1.8-3.1,2.9-4.5
		c1.6-2.3,3.1-2.6,5.8-1.6C160.6,300.9,162.1,301.4,163.9,302.1L163.9,302.1z"/>
	<path class="st0" d="M239.4,278.7c-0.9,0.4-1.8,0.8-2.3,1c-0.3-0.8-0.5-1.8-0.8-1.9c-1.7-0.1-1.8-1.2-1.9-2.4
		c-0.6-0.4-1.1-0.8-1.7-1.2c1.4-1.3,2.4-1,3.8,1.3c-0.4,0.1-0.8,0.2-1.3,0.4C236.7,277,238.1,277.9,239.4,278.7L239.4,278.7z"/>
	<path class="st0" d="M238.3,287.1c0.1,0.2,0.2,0.5,0.4,0.7c0.1,0.2,0.1,0.5,0.2,0.7c-0.6-0.1-1.1-0.3-2.1-0.5
		C237.5,287.5,237.9,287.3,238.3,287.1L238.3,287.1z"/>
	<path class="st0" d="M233.6,275.8L233.6,275.8c-0.5,0-0.9,0-1.4,0c0-0.1,0-0.2,0.1-0.4C232.7,275.6,233.1,275.7,233.6,275.8
		L233.6,275.8z"/>
	<path class="st0" d="M213.5,272.5c-0.2-0.1-0.5-0.1-0.7-0.2c0.1-0.2,0.3-0.4,0.4-0.6C213.3,272,213.4,272.3,213.5,272.5
		L213.5,272.5z"/>
	<polygon class="st0" points="219.9,276.1 219.8,276.1 219.9,276.2 	"/>
	<path class="st3" d="M133.6,42.5c0-3.3-0.1-6.7,0-10.1c0-1.8,1.6-1.8,2.8-1.9c1.5-0.2,2.7,0.7,2.9,2.1c0.1,1.1,0,2.5-0.5,3.4
		c-1.3,2.3-2.9,4.5-4.4,6.7C134.1,42.6,133.8,42.6,133.6,42.5L133.6,42.5z"/>
	<path class="st3" d="M162.1,45.9c0.4-2.9,0.8-5.9,1.3-8.8c0.1-0.4,0.9-1.1,1.2-1c1.3,0.3,2.7,0.7,3.6,1.5c1.1,1.1,0.6,2.7-0.4,3.8
		c-1.6,1.7-3.4,3.3-5.1,4.9C162.6,46.2,162.4,46.1,162.1,45.9L162.1,45.9z"/>
	<path class="st3" d="M151.4,37.9v7.8c-1.1-0.2-2.1-0.3-3.4-0.6c1-2.5,2-4.9,3-7.3C151.2,37.8,151.3,37.9,151.4,37.9L151.4,37.9z"/>
	<path class="st3" d="M215.3,189c0.3-0.2,0.5-0.3,0.7-0.3c0.2,0,0.3,0.1,0.5,0.2c-0.1,0.2-0.2,0.4-0.4,0.4
		C215.9,189.4,215.7,189.2,215.3,189L215.3,189z"/>
	<path class="st0" d="M220.7,241.8c0-0.3,0-0.6,0-0.8c0.2,0.1,0.4,0.2,0.6,0.2C221.1,241.4,220.9,241.6,220.7,241.8z"/>
	<path class="st0" d="M243.8,241c-0.1-0.1-0.2-0.3-0.3-0.4c0,0,0.1-0.1,0.2-0.2c0.1,0.2,0.1,0.3,0.2,0.5L243.8,241L243.8,241z"/>
	<path class="st0" d="M207.9,233.8c0,0,0.1,0.1,0.1,0.1C207.9,233.8,207.9,233.8,207.9,233.8L207.9,233.8L207.9,233.8z"/>
	<path class="st1" d="M145.9,122.2c-2.2-0.6-4.7,0-5.1-2.2c-0.4-2.1,1.7-3.1,3.1-4.2c1.2-1,4.7-0.1,5.3,1.3c0.3,0.7,0.2,2.1-0.3,2.7
		C148.1,120.8,146.7,121.5,145.9,122.2z M144,120.7c2.7,0,4.5-1.1,4-2.1c-0.5-0.9-1.8-1.7-2.8-1.9c-1.4-0.2-2.7,0.8-2.6,2.3
		C142.6,119.7,143.8,120.4,144,120.7L144,120.7z"/>
	<path class="st4" d="M144,120.7c-0.3-0.3-1.5-1-1.5-1.7c0-1.4,1.2-2.5,2.6-2.3c1,0.2,2.3,1,2.8,1.9
		C148.5,119.6,146.7,120.7,144,120.7L144,120.7z"/>
</g>
</svg>
