<?xml version="1.0" encoding="UTF-8"?><svg id="gentoo" xmlns="http://www.w3.org/2000/svg" viewBox="0 0 660.31 382.54"><defs><style>.cls-1{fill:#107275;}.cls-1,.cls-2,.cls-3,.cls-4,.cls-5{stroke-width:0px;}.cls-2{fill:#c45eca;}.cls-3{fill:#fe7406;}.cls-4{fill:#fdfdfd;}.cls-5{fill:#040404;}</style></defs><path class="cls-1" d="m381.44,70.7c-1.06,1.64-2.44.54-3.44.53,0-1.23,0-2.34,0-3.46,0-.1-.22-.22-.21-.31.12-.71.55-1.95.38-2.03-1.03-.53-2.17-.95-3.31-1.09-1.08-.13-2.21.13-3.72.24.65.74,1.14,1.16,1.45,1.68.62,1.05,1.15,2.15,1.72,3.23.34.64.68,1.28,1.07,1.89,1.02,1.58,2.15,3.1,3.1,4.72.92,1.57,2.23,1.67,3.3.2.67-.92,1.59-1.66,2.25-2.58.51-.71.81-1.58,1.23-2.44,1.17.08,2.29-.82,3.82-.47.89.2,2.09-1.66,3.33-2.08,1.76-.6,3.69-1.03,5.53-.98,1.87.06,2.78-.86,3.46-2.22,1.83-3.63,3.62-3.52,6.13-.34,1.2,1.52,1.92,3.47,2.62,5.32.7,1.85,1.85,2.72,3.81,2.85.8.05,1.57.57,2.47.93.71-1.2.93-2.27.22-3.68-.53-1.06-.75-2.46-.59-3.64.13-.94.92-2.37,1.63-2.52,1.05-.22,2.65.18,3.37.93,1.09,1.14,1.61,2.82,2.42,4.24.22.38.6.75,1,.95,1.38.71,3.31.87,2.85,3.25-.05.25.46.61.71.92,2.48,2.9,3.39,6.19,2.7,9.98-.43,2.32-.64,4.68-1,7.02-.09.57-.24,1.34-.64,1.63-1.56,1.1-1.94,2.56-1.55,4.37-.15.08-.3.16-.45.24-.32-.37-.64-.74-.96-1.1,0-.76,0-1.51,0-2.3-1.04.26-1.95.5-2.95.75v-1.8c-1.07.35-2.15.71-3.22,1.07-.02.58-.05,1.16-.07,1.73l-.02-.02c.37.5.63,1.46,1.42.37,0,0,0,0,0,0-.12.35-.4.95-.32,1,1.54,1.02,2.04,3.66,4.66,3.01.14-.04.47.12.5.25.64,2.31,2.61,1.95,4.89,2.15-2.1,1.31-3.77,2.35-5.54,3.45.34,1.08.69,2.19,1.22,3.84,1.15-1.16,2.1-2.23,3.18-3.16.43-.37,1.13-.41,1.71-.61.11.68.56,1.66.28,1.97-.61.67-1.69.87-2.39,1.49-.37.33-.6,1.21-.43,1.67.89,2.39,1.92,4.73,2.91,7.08-.33,3.04-.66,6.08-.99,9.12q-.45,1.69-2.7,2.07c.64,1.64.54,3.1-.8,4.48-.53.54-.43,1.7-.72,3.08-.7-1-1.2-1.71-1.79-2.55-.66.28-1.43.6-2.19.92-.05.87.09,1.8-.23,2.53-.24.55-1.07.83-1.64,1.23-.72-.35-1.42-.83-2.19-.99-.24-.05-.66.72-1.12,1.26,1.19-.08,2.1-.14,3.01-.2-1.04,2.81-2.57,5.14-6.14,6.08.21,1.19.45,2.43.64,3.68.07.45.2,1.11-.03,1.35-2.14,2.21-.63,4.77-.78,7.16-.04.58.02,1.35-.31,1.69-2.08,2.12-1.65,4.53-1.06,7.03.34,1.43-1,3.24-2.71,3.7,1.13,1.41,1.4,2.82.47,4.5-.4.73-.07,1.87-.07,2.79-1-.47-1.92-1.02-2.91-1.32-.63-.19-1.37,0-2.05-.02-.66-.03-1.32-.13-2.22-.22-.06.23-.2.76-.33,1.28-.72-.28-1.46-.51-2.14-.84-5-2.45-10.39-4.24-14.52-8.2-1.71-1.64-4.05-3.18-4.77-5.23-2.64-7.51-4.97-15.16-6.92-22.88-1.56-6.15-2.36-12.49-3.57-18.73-.24-1.22.21-1.77,1.29-1.96,2.04-.37,2.68-1.5,1.41-3.16-1.87-2.43-3.94-4.69-5.93-7.02-.17-1.88-.33-3.76-.5-5.64-.64-7.82-4.2-13.4-11.74-16.46-8.77-3.55-17.04-2.07-25.2,1.7-1.63.75-3.03,1.98-4.54,2.99,0,0,0-.1,0-.1-.15.14-.3.29-.45.43l.02-.08c-.11.11-.22.23-.32.34-.81.63-1.62,1.26-2.43,1.89-.15.22-.29.43-.44.65l.05-.03-2.05,2.8.06-.02c-.34.23-.83.39-1,.71-.95,1.82-2.07,3.6-2.68,5.54-2.67,8.36-4.72,16.87-5.63,25.62-.51,4.85-1.3,9.63-4.51,13.6-.37.46-.59,1.04-.88,1.56-4.25,7.9-8.47,15.82-12.78,23.69-.48.88-1.33,1.65-2.18,2.22-6.97,4.69-14.89,7.28-22.7,10.09.83-.97.46-1.83-.57-2.03-.92-.18-1.94.19-2.76.3-1.22-.6-2.41-1.19-3.6-1.79-.4-2.37-4.28-5.59-7.43-6.12.22.59.44,1.15.65,1.72-.22.08-.44.16-.66.24-1.19-1.04-2.38-2.07-3.7-3.23,2.19-1.89.97-3.54.2-5.81,2.09,1.18,3.85,1.97,5.38,3.09,1.43,1.05,2.73,2.34,3.85,3.71,1.05,1.29,1.98,1.09,3.38.31-.74-.58-1.32-1.04-1.89-1.48,1.03-2.25.52-3.6-1.52-4.51-2.71-1.2-5.33-2.59-7.09-5.09-.76-1.07-1.27-2.31-1.89-3.47-.51-.95-1.23-1.86-1.47-2.87-.26-1.1-.03-2.31-.07-3.47-.02-.56-.1-1.14-.31-1.66-.58-1.47-1.56-2.88-1.74-4.38-.12-1.04.6-2.47,1.41-3.21.48-.44,1.98-.08,2.84.31.86.39,1.82,1.14,2.17,1.97,1.54,3.64,4.58,2.83,7.47,2.91-1.73-3.46-3.49-6.71-4.97-10.09-.72-1.65-1.07-3.52-1.28-5.33-.16-1.4.97-2.06,2.27-2.14,1.51-.09,3.03-.02,4.47-.02,1.63-1.78,3.34-3.64,4.99-5.44-.29-1.23-.74-2.74-.97-4.28-.24-1.59-.26-3.22-.38-4.81.42-.32.85-.65,1.29-.98-.41-.26-.81-.55-1.24-.78-1.24-.67-2.74-1.05-2.36-3.05.08-.41-.59-.98-.94-1.46-2.12-2.91-2.79-6.09-1.78-9.58.09-.3.14-.63.32-.86.24-.3.59-.52.9-.77-.46.07-.92.15-1.59.26.99-1.27.38-3.56,2.22-3.4.54-1.76,1.12-3.21,1.41-4.72.22-1.14.09-2.35.12-3.53l-.03.04c.44.64.88,1.28,1.31,1.91.04.69.08,1.39.13,2.16.86-.23,1.58-.43,2.39-.65.15.74.25,1.28.33,1.67,1.12-.34,2.15-.64,3.17-.95.32-.04.65-.09.96-.13.24-.18.48-.36.72-.54.66-.74,1.33-1.47,2.07-2.3.18.92.34,1.74.46,2.38.81-1.02,1.46-2.52,2.56-3.02.98-.45,2.46.21,4.17.45-.77.93-1.17,1.41-1.56,1.89.12.19.24.37.36.56.79-.44,1.79-.71,2.32-1.37.41-.51.44-1.4-.74-1.84-.66-.25-.97-1.39-1.6-2.38h2.51c-.43-.54-.67-.86-.95-1.22,1.16-.09,2.39-.19,3.62-.28.98.57,1.96,1.54,3.04.08-.6-.53-1.17-1.02-1.73-1.52.85-1.95,1.87-3.73,4.4-3.54.84.06,1.66.39,2.49.59,0,0,0,.1,0,.1v-.07c-.24-.36-.49-.72-.8-1.17.56-.35,1.11-.68,1.66-1.02,0,0,.09.08.09.08l.09-.08c.75.39,1.51.78,2.53,1.32-.73-3.31.37-5.59,2.15-7.72-.47-.41-.91-.79-1.33-1.15.35-.67.71-1.35,1.23-2.35-.68.2-1.06.24-1.38.41-3.92,2.03-7.88,3.99-11.73,6.15-1.48.83-2.69,2.15-4.07,3.18-.36.27-.89.32-1.34.47-.39.25-.79.5-1.18.74-.1.13-.21.27-.31.4-.75.04-1.49.09-2.24.13.04-.18.05-.36.11-.53.14-.41.31-.81.47-1.21,0,0-.01.01-.01.01.18-.07.37-.14.55-.21-.18-.07-.37-.15-.55-.22,0,0,.01.01.01.01.41-.46.79-.95,1.25-1.37,1.36-1.25,2.75-2.46,4.13-3.68.1.59.2,1.18.36,2.08.67-.46,1.22-.85,1.79-1.21,1.8-1.15,3.17-2.82,5.58-3.23,1.86-.32,3.52-1.78,5.27-2.73-.13-.23-.27-.45-.4-.68-.47.29-.91.75-1.41.82-.63.09-1.3-.14-1.95-.23.55-.84,1.09-1.68,1.67-2.5.15-.21.46-.41.71-.43,1.58-.14,2.38-1.05,2.66-2.53.97-.06,1.94-.12,2.4-.15.31-1.11.47-1.71.63-2.31,1.03,1.03,2.24,1.69,3.72,1.78-.16.76-.31,1.52-.52,2.5-.5-1.6-3.03,1.76-2.43-1.84-1.44,1.31-2.54,2.32-3.65,3.33.13.16.26.32.39.48.84-.55,1.67-1.1,2.86-1.88-.28.97-.44,1.5-.66,2.27,1.37-.27,2.7-.9,3.85-.67,2.29.45,2.69-.92,2.75-2.47.06-1.72-1.34-1.74-2.61-1.7-.11-.63.55-1.65-.95-1.57-.37.02-.78-.82-1.18-1.26-.35-.39-.72-.76-1.09-1.14-.36.36-.72.73-1.08,1.09-.58.25-1.17.5-1.75.76-.62-.93-1.17-1.92-1.89-2.77-1.46-1.73-3.01-3.38-4.6-5.16-1.04-.56-2.33-1.26-3.75-2.02.73,1.27,1.42,2.48,2.15,3.75-1.51-.04-4.07-2.59-5.87-5.76,2.06-1.68.83-3.55-.09-5.78,3.76,1.9,6.78,4.02,8.91,7.24.77,1.16,1.71,1.95,3.2,1.6.33-.08.6-.39.99-.65-.84-.63-1.41-1.05-1.99-1.48.58-1.78,1.14-3.48,1.79-5.47,1.38,1.12,2.88,2.34,4.57,3.71-.07.05-.52.39-1.14.84.93.21,1.81.41,2.69.61-.03-.59-.06-1.19-.1-1.78v-.02c.18.48.35.97.62,1.76.81-.26,1.78-.58,2.64-.85-1.21-.68-2.36-1.34-3.52-2,.37-.35.75-.71,1.12-1.06-1.04-.06-2.08-.13-3.13-.19.4-1.08.69-1.86.98-2.65.82.2,2.18.19,2.09,2.07-.01.32,1.29,1.12,1.74.97,2.41-.82,3.43,1.09,5.1,2.31-1.13.83-2.15,1.58-3.05,2.25.6.77.95,1.24,1.31,1.71-.13.08-.28.14-.39.25-.03.03.07.19.11.29.17-.1.35-.19.52-.29,2.19-1.09,4.73-1.79,6.49-3.37,3.71-3.31,6.04-.52,8.7,1.36.26.19.59.28.89.42.97.96,1.95,1.92,2.92,2.88l.17-.22c.2.53.4,1.06.59,1.6.57-.26,1.22-.43,1.67-.83.27-.24.24-.83.34-1.26.77-.07,1.54-.14,2.3-.21-.06.15-.12.3-.17.45.56.29,1.11.59,1.67.88.66.46,1.32.92,1.81,1.27.64-.54,1.06-.89,1.47-1.24,1.19-.23,2.4-.71,3.55-.58.7.08,2.03-.32,2.29,1.08,0,.02.54-.06.83-.09-.67,1.86-1.85,1.05-3.52.33.82.96,1.29,1.52,1.77,2.09-.22.32-.56.61-.65.97-.22.81-.32,1.65-.71,2.47.26,1.18,1.13,1.48,2.05.58,1.48-1.46,2.81-3.07,4.21-4.6.29-.31.61-.73.97-.8,1.85-.34,1.85-.3.35-2.41,1.17.09,2.11-.1,2.66.27.92.63,1.88,1.42,1.18,2.93-.33.71-.17,1.65-.23,2.49,1,.04,2.02.19,2.99.04.25-.04.34-1.05.55-1.77,1.74-.11,3.98.02,4.91-2.61-.31-.24-.65-.5-.99-.76,1.76-1.88,2.16-1.81,1.21-5.89,2.46.91,4.78,1.77,7.4,2.74,1.29-1.07,2.4-.93,4.49.6,1.63,1.19,3.61,1.92,5.12,3.22,1.15.99,1.8,2.56,2.68,3.87.52.77,1.23,1.47,1.56,2.31.37.94.75,2.11.49,3-.59,2.05.61,2.65,2.06,3.23.55.22,1.18.29,1.64.62.35.25.77.91.66,1.19-.52,1.33-1.09,2.67-1.88,3.84-.76,1.13-1.78,1.97-3.37,1.13-.46-.24-1.16-.04-1.98.42.5.48,1,.95,1.49,1.43l-.03-.04Zm-74.96-26.14c-.18-.07-.35-.15-.53-.22.1.15.19.31.29.46.37.13.74.25,1.11.38.04-.16.08-.32.13-.49-.33-.05-.66-.09-1-.14Zm45.64,11.79c-.17-.04-.34-.08-.5-.11-.67,1.09-1.34,2.18-2.05,3.32,1.77,1.03,3.08.75,4.78-1.19-2.45.57-2.22-.81-2.23-2.02Zm-86.88,119.24c.17-.08.34-.16.51-.24-.26-.31-.51-.62-.88-1.07,1.9-.14,1.56-1.28,1.19-2.43-.61.24-1.25.48-1.86.72.35,1.02.7,2.02,1.04,3.02Zm38.29-121.82c.09-1.32.15-2.3.21-3.27l-.61-.18c-.66.61-1.32,1.22-1.97,1.84.72.49,1.22.83,2.37,1.62Zm-3.38-6.44c-.56.28-1.25.62-1.95.96.66,1.49,1.47,2.24,2.63.77-.24-.6-.42-1.07-.68-1.73Zm60.88,2.16c.14.11.28.23.42.34.26-.39.51-.78.77-1.18-.14-.09-.29-.18-.43-.28-.25.37-.51.74-.76,1.12Zm-82.85,26.67c.19-.21.32-.32.38-.45.02-.04-.16-.24-.24-.24-.14,0-.27.12-.4.18.07.14.14.27.26.51Zm7.6,6.8c-.1-.05-.2-.1-.31-.13-.04,0-.09.07-.14.1.07.07.14.19.2.19.08,0,.16-.11.25-.17Zm123.13,92.18l-.03-.14-.03.14h.06Zm-101.08-128.22c-.05-.05-.1-.1-.14-.14-.04.09-.1.17-.13.27,0,.03.08.09.13.13.05-.09.1-.17.14-.26Z"/><path class="cls-1" d="m237.33,304.01c.09-.97.42-1.44,1.35-.64.14.8.28,1.59.42,2.37.94-.29,1.93-.45,2.76-.91.62-.34,1.17-1,1.46-1.65.09-.2-.69-.9-1.16-1.24-.57-.41-1.24-.68-1.86-1,.27-.37.55-.74.82-1.11,1.74-.74,3.23-1.75,2.49-3.92-.52-1.53-1.37-2.97-2.2-4.37-.21-.35-.91-.42-1.39-.62-1.02-.63-2.12-1.18-3.04-1.94-.47-.39-.63-1.16-.93-1.76.5-.22,1-.43,1.5-.64.24.19.49.38.73.57-.37.19-.74.38-1.61.83,1.03.27,1.57.41,2.12.55-.06-.24-.11-.48-.17-.71.12-.51.14-1.07.36-1.53,1.22-2.47,1.97-4.94.38-7.54-1.31-.88-2.62-1.77-4.06-2.74.5-.16.87-.28,1.26-.41-1.39-2.34-2.39-2.65-3.82-1.33.54.4,1.11.8,1.67,1.21-.27.12-.53.25-.8.37-.45-.12-.9-.25-1.36-.37-.02.13-.03.25-.05.38h1.42c-1.49,2.06-1.86,2.08-4.13.88-.41-.22-1.19.27-2.11.51-.88-.27-2.3-.71-3.72-1.14-1.27.02-2.53.05-3.8.07,0,0-.05-.05-.05-.05l.05.04c.84,2.31-.75,2.08-2.17,1.92.22,1.21.41,2.29.61,3.38-.18.04-.35.08-.53.13-1.01-1.32-2.25-2.53-2.95-4-.45-.94-.08-2.26-.08-3.63-.23-.24-.76-.81-1.29-1.38-.07-.26-.14-.53-.22-.79-.15.19-.3.38-.45.57.23.06.46.13.7.19v2.31c-2.05.06-2.53-.77-1.9-2.23-1.05-1.3-2.36-2.26-2.69-3.48-.55-2.06-.61-4.29-.63-6.44-.01-1.4.83-2.65.54-4.27-.17-.96,1.31-2.21,2.17-3.51.18-1.39.34-3.14.64-4.87.28-1.6,1.55-2.57,2.95-2.46.9.07,1.95,1.15,2.52,2.03.54.83.91,2.11.68,3.02-.45,1.87.54,2.95,1.68,3.94.93.8,2.08,1.35,3.2,2.05.42-4.65.82-9.1,1.22-13.55.8-1.41,1.59-2.82,2.54-4.5,2.2,1.24,4.06,2.29,5.58,3.15,2.73-.56,5.27-1.07,7.8-1.6.79-.16,1.57-.36,2.36-.54.48.43.91,1.15,1.45,1.24,1.19.19,2.43.07,3.65.07.81,1.34,2.06.91,3.23.82-.02.04-.03.08-.05.12.03-.04.06-.08.1-.13.53-.07,1.06-.13,1.58-.2.08.23.15.46.23.69-.36.21-.72.43-1.09.65,1.07,1.35,2.18,1.34,3.39.41.66.24,1.32.47,1.98.71.07-.71.15-1.41.22-2.12.12-.72.56-1.59.31-2.14-1.38-2.97-1.44-2.96.68-4.59,0-2.16-.47-4.29.15-6.02.49-1.34.54-2.41.42-3.72-.1-1.15-.02-2.39.32-3.49.47-1.53,2.59-2.06,3.72-.93.91.9,1.94,2,2.2,3.17.34,1.56,1.02,2.44,2.43,2.92.01,0,0,.1-.01.16.04-.06.07-.11.3-.47-.88-1.46-1.33-3.2.78-5.13-3.89.16-3.72-2.34-4-4.5h-4.25c.23.47.4.83.69,1.42h-3.61c.54,1.18.94,2.37-.55,2.88-.89-2.21-1.74-4.32-2.68-6.64-2.22.61-1.67-1.83-2.75-3,.6.04.92.07,1.25.09-.19-.19-.42-.36-.57-.57-.25-.36-.46-.76-.68-1.15,4.29-.84,8.56-1.97,12.89-2.46,6.32-.72,12.66-1.58,19.02.15,2.63.72,4.28,2.09,4.59,4.68.5,4.15.97,8.33,1.05,12.5.19,10.25-.26,20.53.33,30.76.42,7.13-.35,13.87-2.52,20.59-1.46,4.53-1.05,9.07.59,13.5.64,1.74,1.3,3.51,2.18,5.14,1.4,2.6,1.86,5.22.93,8.06-.79,2.43-1.94,4.83-2.24,7.33-.5,4.14-.78,8.36-.55,12.52.27,4.76,1.08,9.5,1.89,14.2.41,2.38.77,5.14,2.19,6.89,1.76,2.15,2.88,4.4,3.71,6.92.33.99.51,2.45,1.93,1.86.62-.26.76-1.69,1.06-2.61.07-.22-.2-.6-.09-.77.55-.85,1.03-1.85,1.82-2.39.31-.21,1.57.45,2.01,1.01,2.09,2.66,4.02,5.45,6.08,8.14.34.44,1.01.77,1.57.83.25.03.91-.78.84-1.09-.46-2.07.91-3.54,1.61-5.2.9-2.14,1.97-2.39,3.94-1.29.43.24,1.31.29,1.61.01.4-.37.66-1.15.6-1.72-.34-3.36-.68-6.6.13-10.04.91-3.89.91-8,1.31-12.07,0,0,.25.04.48.13,5.26,2.25,10.46,4.69,16.27,5.24.3.03.71.18.85.41,1.16,1.88,3,1.89,4.91,2.05,1.5.13,3.1.43,4.42,1.11,3.29,1.7,5.87.79,8.19-1.71.68-.73,1.38-1.45,1.99-2.23,1-1.26,1.75-2.82,2.96-3.8,1.2-.97,2.82-1.49,4.32-2,.46-.16,1.45.21,1.7.63,1.93,3.19,3.75,6.44,5.58,9.68.68,1.21.42,2.29-.56,3.24-1.15,1.11-2.3,2.22-3.38,3.4-2.17,2.39-4.22,4.85-3.99,8.39-.43.41-.86.81-1.29,1.22-1.03.78-1.93,1.19-3.43.77-1.13-.31-2.6.54-3.9.92-.68.19-1.34.47-2.01.71,0-.2-.02-.4,0-.1-.18-.25-.06-.09.05.07-.32.91-.65,1.82-1,2.82-.77-.39-1.25-.63-2.1-1.06.34,2.25-.5,3.67-2.15,4.78-.44.3-.4,1.31-.58,1.99-.22.09-.44.19-.66.28-.68-.15-1.36-.3-2.2-.49-.75-2-3.86-3.57-6.36-2.49.13-.84,1.12-2.43-1.02-1.51-.16-.18-.33-.36-.49-.53.02-.33.04-.66.06-1-3.43,2.52-5.24,2.29-8.45-.93.7,1.15,1.39,2.3,2.34,3.85-4.63-.56-3.2,2.78-3.84,5.33,1.8-.62,3.38-1.16,4.95-1.7-1.13,1.35,2.52,3.25-.62,4.15.22.53.43,1.05.66,1.64-.87.6-1.66,1.14-2.45,1.68-.28.17-.57.35-.86.53-.09.38-.18.76-.26,1.13.56.01,1.13.03,1.69.04.33.06.67.12,1,.17,0,.43,0,.86,0,1.3-.18.08-.35.16-.53.25-.24.19-.49.38-.73.56-.05.17-.1.33-.14.5-.15.01-.29.03-.44.05-1.21-.31-2.41-.68-3.63-.89-.48-.08-1.02.19-1.54.32-.3.07-.77.34-.87.24-1.52-1.57-3.94-.53-5.49-1.94,1.1-.4,2.21-.78,3.3-1.19,1.31-.49,1.36-1.33.65-2.54-.11,2.27-1.79,2.01-3.11,2.33-.58.14-1.1.53-1.64.8-1-.15-2-.31-3.19-.49,0,.12.05.47-.06.76-.24.61-.43,1.48-.91,1.72-1.22.63-2.55,1.16-3.89,1.4-2.48.46-4.7,2.68-7.88.87,4-1.4,7.74-2.71,11.66-4.09-.63-.39-1.19-.75-1.76-1.11.04.2.09.4.13.6-2.71.95-5.42,1.91-8.14,2.86-.1-.11-.21-.23-.31-.34.44-.53.88-1.05,1.33-1.59-.95-.69-1.96-1.42-3.2-2.32-1.3.51-3.32,1.3-5.36,2.1.78,3.68-3.27,2.91-4.85,5.05,2.24-.68,4.19-1.83,6.05-1.7,1.98.14,3.41-2.37,5.95-.78-2.91,1.04-5.38,1.92-7.86,2.81v.37c.5-.06,1.02-.09,1.53-.2.45-.1.92-.49,1.31-.4.67.16,1.28.58,1.92.9-.49.44-.92,1.03-1.5,1.27-.49.21-1.16-.08-1.72.01-.61.1-1.18.37-2.01.65-1.58-.69-3.48-1.59-5.43-2.33-.46-.17-1.13.11-1.67.29-2.39.8-4.81,1.65-7.33.74-.97-.35-2.39-.41-2.11-2.28.08-.55-1.24-1.22-1.76-1.95-1.11-1.56-2.11-3.19-3.21-4.86-.1.02-.33,0-.44.11-2.09,2.05-4.06,1.7-6.17-.07-.46-.38-1.5-.06-2.29-.06.2.41.41.82.72,1.44-1.77-.1-3.46-.88-4.56.97-.1.17-.9-.09-1.64-.18,1.04-1.41,2.05-2.69-.2-2.73.52-.62,1.15-1.37,1.78-2.12-.15-.15-.31-.29-.46-.44.23-.11.46-.19.67-.32.52-.33,1.03-.68,1.54-1.02-.78-.3-1.64-.98-2.32-.83-1.33.29-2.51,1.2-3.84,1.56-2.65.72-5.34,1.25-8.02,1.86-.07-.17-.13-.34-.2-.51.59-.63,1.23-1.24,1.76-1.92.32-.4.78-1.04.66-1.39-.91-2.61,1.42-2.58,2.67-3.22,1.69-.86,3.54-1.39,5.3-2.11.38-.15.65-.55.76-1.09.02-.03.04-.06.07-.1-.02.06-.07.18-.06.18.74.29,1.6.97,2.19.78,1.93-.61,3.77-1.53,5.63-2.33.2.06.4.12.6.18-.67.59-1.24,1.44-2.03,1.73-1.85.67-3.81,1-5.69,1.59-2,.63-3.96,1.41-5.93,2.12.06.15.11.29.17.44h4.88c.7-.37,1.58-.9,2.51-1.31,2.16-.97,4.35-1.9,6.54-2.81,1.52-.63,3.08-1.03,4.68-.26-.58.31-1.18.58-1.73.92-.71.45-1.39.97-1.86,1.8,3.42-.43,7.17-.11,8.52-3.94-1.25-1.14-2.45-2.08-3.4-3.24-.19-.23.63-1.28.99-1.97-1.31.25-1.65-.35-1.16-1.15-.5-.67-.82-1.11-1.15-1.54,1.13-.43,2.27-.86,3.43-1.29-.09-.64-.19-1.35-.28-2.06,1.24.14,2.52.5,2.41-1.61-.03-.61.8-1.26,1.34-2.04-.3-.34-.7-.8-1.2-1.36.3-.19.57-.36.85-.54-.09-.05-.27-.13-.27-.14.08-.24.17-.48.28-.71.29-.64.59-1.28.89-1.93.19.1-.12-.16-.48-.24-.61-.14-1.68-.41-1.82-.18-1.66,2.82-4.75,3.1-7.32,4.29-.36-.18-.74-.34-1.09-.54-.54-.32-1.07-.67-1.6-1.01-.25.45-.51.89-.76,1.34-.66.3-1.33.61-1.99.91-1.09.49-1.8-.09-1.86-1.04-.03-.5.67-1.39,1.18-1.52,1.79-.46,3.36-1.05,4.18-2.89.17-.38.68-.6,1.02-.91,1.16-1.05,2.31-2.11,3.41-3.11-.16-.18.06.07.42.48-.17-3.63-.93-4.37-3.83-4.21-1.71.09-1.81,1.7-2.28,2.62-1.74,3.49-3.54,3.22-5.92.92-1.03-.99-1.69-2.36-2.51-3.56-1.06-1.56-2.19-3.08-3.16-4.7-.77-1.28-1.33-2.69-2.15-4.39-.82,1.4-2.02,2.62-2.18,3.97-.15,1.22-.78,2.72.48,4.08.6.65.67,2.06.52,3.06-.15.98-.71,2.48-1.4,2.67-1.03.29-2.36-.26-3.49-.66-.49-.17-.79-.87-1.17-1.33-1.39-1.71-1.83-4.36-4.74-4.6-.34-.03-.53-1.19-.88-1.77-.29-.49-.66-.94-1.05-1.36-2.47-2.66-3.69-5.74-3.27-9.42.15-1.36,0-2.76.14-4.12.13-1.25.72-1.41,1.91-.93.4.16.96-.09,1.86-.21-2.38-1-2.53-2.64-2.23-4.46.25-.77.5-1.55.74-2.32,0-.07-.04-.16-.12-.28Zm38.94,30.9l-5.02,2.4.26.56c1.48-.47,2.95-.93,4.66-1.48.01-.19.05-.85.08-1.5l.09-.07s-.08.08-.08.08Zm30.42,37.69c4.75-.65,8.88-1.21,13.27-1.81-1.39-1.64-2.63-1.6-4.1-1.27-1.82.4-3.72.77-5.55.63-1.92-.15-2.4,1.08-3.62,2.45Zm18.41-4.05c.17-1.56.32-2.91.53-4.74-.94,1.36-1.58,2.28-2.21,3.2.15.19.3.39.45.58-.73.04-1.45.08-2.16.12q-.24,2.12,3.39.85Zm-56.86-.68c.27.02.53.04.8.06.23-.93.46-1.86.72-2.9-1.16.17-1.78.27-2.54.38.35.85.69,1.65,1.03,2.46Zm-5.77-.74c.97,1.06,1.45,1.6,2.03,2.24.03-.89,1.96-1.13.64-2.18-.46-.37-1.46-.06-2.67-.06Zm16.14-32.99c-.12-.12-.24-.25-.36-.37-.2.24-.4.47-.59.71.07.07.13.14.2.21.25-.18.5-.36.75-.55Z"/><path class="cls-1" d="m445.86,230.85c.77.86,1.54,1.73,2.43,2.72,1.85-1.35,3.16-.23,4.51,1.44,1.05,1.3,2.73,2.12,3.67,3.48,1.07,1.54,1.63,3.42,2.41,5.16-1.61,4.36-3.21,8.71-4.81,13.07-1.59-3.43-4.11-4.82-7.34-4.04.57,1.25,1.25,2.46,1.68,3.75.79,2.4,1.43,4.86,2.14,7.29.16,1.19.45,2.37.45,3.56,0,2.01-1.34,3.77-2.85,3.62-1.51-.15-2.98-.67-4.5-1.05q-2.17,2.25-1.11,3.67c-2.15.86-.58,2.09-.2,3.1.14.36,1.1.4,1.69.59.02-.12.04-.23.06-.35-.47-.42-.94-.84-1.31-1.17.85-.78,1.59-1.47,2.35-2.16,2.28.41,3.93,1.53,4.3,2.85.03-.69.07-1.49.13-2.69,1.64,1.91,2.91.54,4.23.3.08,1.15.17,2.3.25,3.45,3.61-.21,3.74-.29,5.11-1.99.52-.65,1.17-1.21,1.76-1.8,2.07,1.17,1.85,3.21,1.8,4.82.97.21,1.7.36,2.44.52.41.86.83,1.72,1.24,2.57-.42.03-.84.06-.8.05.59,1.12,1.27,2.43,1.96,3.74.06,2.86.21,5.71-1.39,8.32-.8,1.31-.22,2.13,1.31,2.1,1.26-.03,2.69-.55,2.98,1.52.06.42.99.79,1.59,1.03.73.29,1.53.41,2.63.68-3.5,1.76-6.77,3.06-10.35,2.9-1.77-.08-2.13.76-2.24,1.42,1.66,1.94,2.97,3.47,4.51,5.27-1.61.22-3.02.41-4.44.61-.16-.16-.32-.32-.48-.49-.46-.54-.92-1.08-1.48-1.74-.44,1.02,1.43,1.88-.33,2.44-.3.16-.79.25-.87.48-.88,2.59-2.46,3.88-5.3,3.02-.14-.04-.34.09-.31.08-.21,2.12-.28,4.14-.66,6.09-.21,1.1-.15,2.21-.27,3.18-.16,1.2-1.63,2.56-2.87,3.2-2.14,1.09-4.2,2.07-5.21,4.68,1.1,0,2.13.06,3.15-.01,1.84-.14,3.34-.61,4.27-2.62.83-1.8,2.43-3.15,4.66-3.3,2.26,1.38,2.63,2.45,1.87,5.36-.61,1.08-1.27,2.13-1.81,3.25-.16.32-.02.82.07,1.22.35,1.56,1.19,3.19-.87,4.28-.19.1-.17.61-.24.93-.81,3.93-2.89,6.87-6.6,8.6-.9.42-1.79.94-2.54,1.59-1.3,1.13-2.24.55-3.17-.68-.98,1.74-2.05,2.89-4.1,2.9-.81,0-1.62.96-2.77,1.7.13-.78.23-1.33.32-1.88.55-.41,1.11-.83,1.74-1.3-.65-1.06-2.99-.79-2.24-2.83.16.1.32.19.47.29,0-.27.1-.66-.03-.78-1.94-1.64-3.78-3.58-6.8-2.31v-1.85c-3.46-.4-4.55-1.09-4.22-2.74.05-.24.73-.35.78-.37-.19-.12-.74-.49-1.29-.85.73-.12,1.47-.25,2.85-.48-1.1-.62-1.76-1.12-2.51-1.35-.31-.1-1.04.3-1.15.62-.28.77-.31,1.63-.45,2.45-.19.67-.28,1.38-.58,1.99-.46.93-1.08,1.79-1.62,2.68-.4.66-1.07,1.34-1.07,2.01,0,.44.99.88,1.66,1.42-.21.24.37,1.81-1.23.72-.1-.07-.87.44-.86.65.12,1.71-1.11,2.45-2.28,3.1-1.27.71-2.63.52-3.11-.98-.62-1.93-1.9-2.48-3.7-2.39-.05-.45-.09-.91-.13-1.24.99-.44,1.92-.86,2.61-1.16-.72-.61-1.39-1.17-2.05-1.73.53-.14,1.07-.27,1.94-.5-1.41-1.09-2.59-2.01-3.77-2.93-.19.12-.38.24-.57.36.49,1.01.98,2.03,1.47,3.04-.21.42-.32.93-.64,1.24-.39.37-.94.57-1.31.78.51.53.82.86,1.13,1.19-.52.3-1.05.6-1.43.82-.39,2.07-.45,4.2-1.21,6.04-1.53,3.72-3.09,3.99-5.58,1.45-1.42-1.45-2.83-1.86-4.79-.76-1.04.58-2.54.34-3.82.49-1.16.13-2.31.28-3.47.43-.15-.45-.31-.89-.46-1.33.82-.34,2.05-.45,2.4-1.07,1.5-2.6,4.09-2.32,6.4-2.65,1.38-.2,2.66.19,3.55,1.63.33.53,1.64.77,2.37.6.44-.1,1.06-1.41.88-1.9-.74-1.97-1.37-4.23-2.78-5.66-2.26-2.29-5-4.15-7.73-5.9-3.24-2.08-5.84-4.63-6.92-8.36-1.1-3.8-1.67-7.77-2.92-11.52-1.46-4.39-.72-8.3,1.38-12.23.64-1.2.9-2.64,1.17-4,1.42-7.35,1.24-14.79,1.32-22.23.17-15.16.53-30.32.74-45.48.09-6.77.04-13.54-.04-20.31-.03-2.35-.33-4.71-.53-7.33,9.44.83,18.15,3.06,26.71,5.98,1.46,1.33,2.93,2.65,4.41,3.99.28-1.01.46-1.67.65-2.34.7.12,1.43.15,2.09.39,5.5,1.94,10.98,3.93,16.47,5.9.17.55.34,1.09.51,1.64-.04.68-.27,1.42-.08,2.03,1.12,3.71.04,6.98-1.68,10.57,1.64-.78,3.29-1.56,5.34-2.53-.5-.44-.94-.83-1.45-1.28.72-.39,1.61-.86,2.57-1.38-.72-.97-2.47-1.55-1.58-2.85,1.4.66,2.58,1.22,3.76,1.79Zm7.2,72.88c-.18.76-.35,1.51-.53,2.27-.18,0-.35,0-.53,0,.48.51.96,1.03,1.7,1.81.4-1.37.73-2.52,1.12-3.84-.11-.03-.55-.18-1.31-.42.54-.27.79-.4.88-.44-.08-.09-.25-.31-.27-.34-.35.32-.72.65-1.08.99-.2-1.62-1.25-2.02-2.78-1.85-.19.88-.39,1.79-.61,2.79,1.32-.38,2.37-.67,3.42-.97Zm3.02-5.59c-.62-2.4-2.36-3.2-3.96-4.32v4.6c1.05-.07,2.38-.17,3.96-.28Zm-31.56-62.02c-.18.07-.35.14-.53.22-.15.83-.3,1.67-.46,2.55.66.49,1.33.98,2,1.47l.46-.2c-.49-1.35-.98-2.69-1.47-4.04Z"/><path class="cls-5" d="m414.85,214.94c-8.56-2.93-17.28-5.15-26.71-5.98.2,2.63.5,4.98.53,7.33.08,6.77.13,13.54.04,20.31-.2,15.16-.57,30.32-.74,45.48-.09,7.44.09,14.88-1.32,22.23-.26,1.36-.53,2.8-1.17,4-2.1,3.92-2.84,7.84-1.38,12.23,1.24,3.75,1.81,7.72,2.92,11.52,1.08,3.72,3.68,6.28,6.92,8.36,2.73,1.75,5.47,3.62,7.73,5.9,1.41,1.42,2.04,3.68,2.78,5.66.18.49-.44,1.8-.88,1.9-.74.17-2.04-.07-2.37-.6-.89-1.44-2.17-1.83-3.55-1.63-2.31.33-4.9.04-6.4,2.65-.35.61-1.58.72-2.4,1.07,0,0,0-.03,0-.03-1.42-1.51-3.19-1.5-5.04-1.21h.04c-.3-.1-.6-.21-.9-.32-.72-.02-1.44-.03-2.16-.06-1.86-.09-3.28,1.09-3.7,3.09l-.08.43c-1.86.11-3-.99-3.92-2.38-.74-1.12-1.45-1.18-2.76-.74-1.41.47-3.06.19-4.61.24-.83-.75-1.66-1.49-2.49-2.24-.23-3.54,1.82-6,3.99-8.39,1.07-1.18,2.23-2.29,3.38-3.4.99-.96,1.25-2.03.56-3.24-1.83-3.24-3.65-6.5-5.58-9.68-.26-.42-1.24-.79-1.7-.63-1.51.51-3.12,1.03-4.32,2-1.21.98-1.96,2.54-2.96,3.8-.62.78-1.32,1.5-1.99,2.23-2.32,2.5-4.9,3.41-8.19,1.71-1.32-.68-2.92-.98-4.42-1.11-1.91-.16-3.75-.17-4.91-2.05-.14-.23-.55-.38-.85-.41-5.81-.55-11.01-2.99-16.27-5.24-.23-.1-.48-.14-.48-.13-.4,4.07-.4,8.17-1.31,12.07-.81,3.44-.47,6.69-.13,10.04.06.57-.2,1.35-.6,1.72-.3.27-1.18.23-1.61-.01-1.98-1.1-3.05-.85-3.94,1.29-.7,1.66-2.07,3.13-1.61,5.2.07.31-.59,1.12-.84,1.09-.56-.07-1.23-.39-1.57-.83-2.06-2.69-3.99-5.48-6.08-8.14-.44-.56-1.7-1.23-2.01-1.01-.79.54-1.27,1.54-1.82,2.39-.11.17.16.54.09.77-.3.92-.45,2.35-1.06,2.61-1.42.59-1.6-.87-1.93-1.86-.83-2.52-1.96-4.77-3.71-6.92-1.42-1.74-1.78-4.51-2.19-6.89-.81-4.71-1.62-9.45-1.89-14.2-.23-4.15.05-8.38.55-12.52.3-2.5,1.45-4.9,2.24-7.33.93-2.84.47-5.46-.93-8.06-.88-1.63-1.54-3.39-2.18-5.14-1.63-4.43-2.05-8.97-.59-13.5,2.17-6.72,2.94-13.46,2.52-20.59-.6-10.22-.15-20.51-.33-30.76-.08-4.17-.55-8.35-1.05-12.5-.31-2.6-1.95-3.97-4.59-4.68-6.36-1.73-12.71-.87-19.02-.15-4.33.5-8.6,1.62-12.89,2.46-2.87.79-5.77,1.5-8.62,2.37-8.99,2.75-17.96,5.57-26.94,8.36-2.03.39-4.04.83-6.08,1.16-.91.15-1.86.19-2.78.12-3.76-.3-4.83-1.98-3.4-5.49,2.48-6.04,6.28-11.07,11.75-14.76,2.36-1.59,4.71-3.21,7.07-4.82.19-.13.38-.26.57-.38l1.29-.81c10.73-6.14,22.4-9.93,34.11-13.61,1.77-.56,3.54-1.11,5.3-1.66,1.58-.54,3.16-1.08,4.73-1.62,7.82-2.81,15.73-5.4,22.7-10.09.85-.57,1.7-1.34,2.18-2.22,4.31-7.87,8.53-15.79,12.78-23.69.28-.53.51-1.11.88-1.56,3.22-3.97,4-8.74,4.51-13.6.92-8.75,2.97-17.26,5.63-25.62.62-1.94,1.73-3.72,2.68-5.54.17-.32.66-.48,1-.71-.84,1.69-.54,2.77,1.42,3.46,2.31.82,3.46,2.43,3.53,5.13.18,6.49,4.17,8.95,9.41,6.08,2.27-1.24,3.09-3.07,2.65-5.89-.4-2.56-2.39-4.77-4.63-5.14-2.36-.39-3.33-1.76-2.64-4.09.54-1.84,1.39-3.59,1.99-5.41.23-.68.16-1.46.23-2.19-.73.17-1.48.28-2.18.53-1.42.51-2.81,1.09-4.22,1.64,1.51-1.01,2.91-2.23,4.54-2.99,8.16-3.78,16.43-5.26,25.2-1.7,7.54,3.06,11.1,8.64,11.74,16.46-.66.65-1.47,1.2-1.95,1.96-1.23,1.94-.47,3.67,1.77,4.21.17.04.45-.35.68-.54,1.99,2.33,4.06,4.6,5.93,7.02,1.27,1.65.63,2.78-1.41,3.16-1.08.2-1.53.74-1.29,1.96,1.21,6.24,2.02,12.58,3.57,18.73,1.95,7.72,4.28,15.36,6.92,22.88.72,2.05,3.05,3.58,4.77,5.23,4.13,3.96,9.52,5.75,14.52,8.2.69.34,1.43.56,2.14.84,7.74,3.2,15.47,6.4,23.21,9.6,3.87,1.57,7.75,3.12,11.61,4.71,13.91,5.7,21.42,16.27,23.5,30.94.34,2.42-.57,3.64-3.09,3.49-3.77-.23-7.51-.84-11.26-1.3-.65-.08-1.3-.22-1.95-.33-.48-.12-.96-.24-1.44-.35-1.73-.46-3.46-.91-5.19-1.37-5.49-1.97-10.97-3.95-16.47-5.9-.66-.23-1.39-.26-2.09-.39,0,0-.03,0-.03,0-.21-.12-.42-.25-.63-.37-1.47-.43-2.93-.85-4.4-1.28Zm-50.53,107.03c.37.35.71.58.94.89,1.24,1.72,2.51,3.43,3.66,5.22.79,1.24,1.56,2.17,3.27,2.02,1.95-.17,3.94.09,5.89-.08,2.83-.25,4.7-2.77,4.33-5.53-.31-2.24-.64-4.48-.89-6.73-.24-2.15-1.07-4.52-.46-6.43,3.07-9.62,3.23-19.49,3.28-29.42.07-13.05.18-26.1.53-39.14.29-10.58.91-21.15-.29-31.71-.18-1.55-.74-2.45-2.5-2.32-1.59.12-3.23.24-4.78-.02-.74-.12-1.75-1.02-1.92-1.73-.3-1.28.77-1.95,1.96-1.9,5.85.25,11.71.41,17.54.92,9.98.88,19.07,5.79,29.17,6.4,6.23.38,12.41,1.59,18.62,2.25,2.89.31,4.83-1.72,4.3-4.32-.46-2.27-1.02-4.54-1.8-6.71-1.72-4.85-5.81-7.27-10.16-9.26-5.43-2.49-11.02-4.65-16.39-7.26-7.53-3.65-15.35-6.36-23.55-7.88-3.81-.71-8-2.27-10.67,2.4-1.21-3.94-2.32-7.73-3.52-11.5-1.68-5.25-4.05-10.07-8.44-13.69-5.85-4.83-12.78-6.77-20.11-7.03-8.99-.33-17.75,1.54-26.25,4.37-4.65,1.55-9.21,3.4-13.69,5.4-3.37,1.51-6.19,4.01-7.18,7.65-1.98,7.23-3.64,14.54-5.3,21.85-.72,3.16-.69,6.53-1.73,9.56-1.19,3.48-3.19,6.68-4.84,10-.43-.8-.6-1.66-.39-2.41.35-1.27.93-2.48,1.43-3.7,2.81-6.89,2.04-13.4-2.27-19.43-3-4.2-3.26-4.21-8.26-2.58-.25.08-.52.09-.78.16-4.81,1.3-9.73,2.29-14.4,3.96-10,3.57-19.9,7.44-29.81,11.27-6.55,2.53-12.74,5.72-17.94,10.54-1.3,1.2-2.39,2.64-3.81,4.23,2.89.38,2.87.4,5.48,2.49.43.34,1.12.59,1.65.54,1.69-.18,2.88.25,3.08,2.21,1.45-.45,2.74-.78,3.98-1.24,11.63-4.34,23.48-7.75,35.92-8.79,6-.5,11.97-.85,17.81,1.08.68.22,1.6.63,1.81,1.18,1.02,2.71,2.05,5.44,2.68,8.26.73,3.23,1.08,6.55,1.53,9.84.93,6.8,1.44,13.6,1,20.48-.46,7.3-.72,14.61-.8,21.92-.03,3.26.1,6.45-1.02,9.6-.55,1.55-.82,3.24-.93,4.89-.19,2.95-.76,5.95.65,8.81,1.96,3.99,3.7,8.11,5.86,11.99.81,1.46,2.36,2.74,3.87,3.52,4.45,2.3,8.88,4.73,11.99,8.68,4.24,5.39,9.69,8.63,15.93,11.17,13.22,5.39,25.11,2.18,36.73-4.95Zm-51.8,22.87c.51.6.99,1.43,1.71,1.95.49.35,1.38.51,1.92.3.36-.14.75-1.3.54-1.62-1.51-2.3-.46-4.63-.3-6.96.26-3.76.45-7.52.53-11.28.01-.69-.5-1.52-1.01-2.07-3.18-3.47-6.4-6.89-9.65-10.29-2.16-2.25-3.83-5.2-7.58-5.24-.64,0-1.36-.57-1.87-1.06-1.28-1.21-2.46-2.53-3.82-3.95-1.87,3.33-2.76,7.06-3.31,10.75-.68,4.62-1.4,9.35.22,13.99.15.43.22.92.19,1.38-.23,4.38.22,8.64,2.71,12.39.8,1.21,1.9,2.6,3.16,3.05,1.91.68,2.67-1.03,3.07-2.64.41-1.66.89-3.32,1.13-5.01.37-2.61.57-5.25.86-8.08.31,1.05.53,1.95.84,2.81.92,2.52,1.24,4.94-.05,7.52-.42.84-.2,2.31.26,3.21,1.39,2.68,2.98,5.27,4.65,7.78,1.17,1.76,2.5,1.5,3.32-.53.82-2.03,1.59-4.09,2.49-6.39Zm61.42-226.59c-1.5-1.61-2.52-2.91-3.75-3.97-2.56-2.21-5.25-4.28-7.87-6.42-3.37-2.75-9.19-3.22-12.92-.99-1.87,1.12-3.65,2.42-5.58,3.42-2.28,1.18-4.69,2.09-7.01,3.19-.42.2-.69.71-1.02,1.08.46.29.93.85,1.38.83,1.52-.06,3.04-.26,4.54-.52,2.76-.49,4.98.17,7.01,2.28,5.25,5.44,3.76,5.27,11.45,3.62.39-.08.79-.11,1.18-.18,4.02-.74,8.03-1.48,12.58-2.33Zm23.35,229.59c.06-.24.12-.49.18-.73-1.57-1.04-3.18-2.01-4.68-3.13-1.41-1.05-2.97-2.07-3.97-3.46-1.89-2.64-3.47-5.5-5.06-8.33-.57-1.02-1.19-1.47-2.35-1.35-1.78.18-3.57.17-5.34.41-1.53.2-3.02.64-4.93,1.06,1.01,1.12,1.68,1.83,2.32,2.56,2.35,2.73,2.27,5.59-.24,8.16-1.12,1.14-2.32,2.21-3.36,3.41-1.03,1.19-1.91,2.51-2.86,3.77.91.32,1.42.26,1.93.17,1.93-.38,3.84-1,5.78-1.08,1.93-.08,3.87.42,5.82.56.51.04,1.09-.23,1.55-.51,2.28-1.4,4.5-3.17,7.13-.6.16.15.5.2.74.17,2.45-.34,4.9-.7,7.35-1.05Z"/><path class="cls-5" d="m292.98,21.56c-1.93.85-3.83,1.8-5.82,2.47-.56.19-1.4-.48-2.12-.75.32-.72.44-1.82.98-2.09,2.01-1,4.13-1.8,6.26-2.55,2.62-.92,4.1.12,3.95,2.87-.19,3.71-1.21,7.23-3.36,10.29-2.82,4.01-7.36,4.29-10.11.25-5.2-7.65-6.56-16.07-3.24-24.85,1.68-4.42,5.37-5.19,8.87-2,1.37,1.25,2.32,3.04,3.17,4.73.26.51-.45,1.51-.72,2.28-.66-.39-1.49-.65-1.95-1.2-.92-1.11-1.46-2.56-2.47-3.54-1.84-1.77-3.05-1.46-4.12.84-1.58,3.38-1.63,6.96-1.24,10.57.41,3.81,1.39,7.46,3.54,10.68,2.14,3.2,4.58,3.15,6.31-.31,1.16-2.31,1.77-4.9,2.62-7.37-.18-.1-.37-.2-.55-.3Z"/><path class="cls-5" d="m318.38,16.43c.42,4.13.78,8.27,1.31,12.38.15,1.19.03,2.22-1.16,2.21-.63,0-1.74-1.1-1.81-1.78-.67-7.35-1.22-14.71-1.68-22.07-.04-.65.74-1.35,1.14-2.03.71.46,1.8.75,2.08,1.4,1.58,3.58,2.96,7.25,4.43,10.88.41,1.02.88,2.02,1.74,2.97-.13-2.9-.26-5.81-.38-8.71-.08-2.06-.13-4.12-.19-6.18-.03-1.13.35-2.19,1.6-1.94.58.11,1.32,1.23,1.37,1.94.49,7.23.89,14.47,1.17,21.71.04.92-.8,1.87-1.24,2.81-.78-.57-1.88-.98-2.28-1.75-1.98-3.89-3.78-7.87-5.64-11.82-.16,0-.31,0-.47,0Z"/><path class="cls-5" d="m364.6,26.01c.3-6.1,1.56-11.06,4.91-15.29.73-.92,1.63-1.77,2.6-2.44,2.12-1.47,3.29-.99,4.99.98,2.64,3.07,3.17,6.54,2.38,10.26-.62,2.91-1.36,5.83-2.48,8.57-.76,1.85-2.05,3.6-3.49,5.01-2.98,2.91-6.66,1.94-7.94-2.02-.6-1.87-.75-3.89-.96-5.06Zm8.99-15.04c-4.33,3.22-7.05,11.99-5.42,18.19.23.88.9,2.26,1.45,2.31.84.07,2.04-.62,2.6-1.36,3.45-4.52,4.71-9.73,4.36-15.34-.05-.76-.61-1.56-1.11-2.2-.49-.62-1.21-1.05-1.88-1.59Z"/><path class="cls-5" d="m363.12,12.97c-1.08,4.36-1.91,8.79-3.33,13.03-.65,1.94-2.21,3.81-3.83,5.14-2.44,2-5.39,1.15-6.48-1.8-.76-2.06-1.14-4.38-1.15-6.58-.02-5.15,1.4-9.97,4.46-14.19.69-.95,1.54-1.85,2.48-2.56,2.62-1.98,5.41-1.19,6.57,1.95.56,1.53.66,3.22.96,4.84.11.05.22.11.32.16Zm-3.03.41c-.2-.05-.4-.1-.6-.15,0-.66.14-1.37-.03-1.98-.29-1.01-.79-1.96-1.21-2.94-.96.59-2.19.98-2.82,1.82-3.27,4.32-4.4,9.31-4.06,14.64.1,1.61.05,3.93,1.89,4.1,1.04.1,2.85-1.78,3.33-3.13,1.43-4.03,2.38-8.23,3.51-12.36Z"/><path class="cls-5" d="m302.14,7.04c.15,2.15.29,4.1.44,6.13,1.34-.23,2.46-.61,3.55-.55.68.04,1.31.74,1.97,1.14-.44.58-.77,1.47-1.35,1.69-1.15.44-2.44.51-3.96.78.59,4.43,1.17,8.75,1.78,13.31,1.97-.65,3.64-1.31,5.36-1.72.67-.16,1.48.24,2.22.39-.27.81-.35,2.14-.85,2.33-2.35.87-4.8,1.57-7.26,2.05-1.32.25-2-.84-2.18-2.1-.65-4.47-1.33-8.94-1.91-13.41-.35-2.7-.57-5.42-.78-8.14-.29-3.73.72-4.83,4.41-4.99,1.33-.06,2.68-.36,3.97-.18.7.09,1.3.95,1.95,1.45-.59.5-1.13,1.34-1.79,1.45-1.75.29-3.55.26-5.57.37Z"/><path class="cls-5" d="m340.45,7.16c0,6.14-.02,12.11.01,18.08.01,1.93.14,3.85.27,5.77.07,1.07.08,2.14-1.27,2.26-1.47.13-1.71-.99-1.73-2.13-.15-7.17-.29-14.35-.43-21.52,0-.45,0-.91,0-1.65-1.27.28-2.39.68-3.52.71-.71.02-1.42-.55-2.14-.85.4-.66.68-1.76,1.22-1.91,4.49-1.19,9.02-2.25,13.57-3.19.54-.11,1.28.74,1.93,1.15-.51.58-.91,1.49-1.54,1.69-2.07.67-4.23,1.08-6.36,1.59Z"/><path class="cls-5" d="m394,6.92c-.14.57-.2.89-.3,1.21-1.81,5.97-3.61,11.94-5.45,17.9-.41,1.34-.25,3.63-2.49,3.03-2.07-.56-.76-2.37-.43-3.55,1.64-5.89,3.38-11.74,5.13-17.6.18-.62.47-1.31.92-1.73.36-.33,1.12-.52,1.57-.37.46.14.75.78,1.05,1.11Z"/><path class="cls-1" d="m377.01,357.26c.03-.14.05-.29.08-.43,2-.19,4.01-.38,6.01-.56-.08.7-.15,1.4-.24,2.21-.91-.42-1.4-.65-2.06-.96.78,2.66,2.37,2.88,5.16,1.26.88.84,1.69,1.61,2.5,2.38,1.47.86.49,2.28-.08,2.31-2.3.14-3.59,2.13-5.61,2.66-.87-.64-1.26-1.32-.3-2.22.77-.72.53-1.33-.27-1.84-1.04-.09-2.08-.18-2.55-.22-1.05-1.82-1.85-3.2-2.65-4.58Z"/><path class="cls-1" d="m262.06,378.66c.07-1.36.1-2.11.15-3.09.5.17,1.01.37,1.53.5.38.09.8.2,1.16.12,1.27-.31,2.56-.59,3.76-1.08,1.79-.73,2.32.36,2.96,1.82-1.9.37-3.51,1.75-5.4.05-.36-.32-1.57.18-2.33.46-.55.2-1,.66-1.82,1.24Z"/><path class="cls-1" d="m400.13,59.26c-.58-1.13-.48-1.93,1.18-2.39.98-.27,1.73-1.29,2.68-1.76.45-.22,1.25-.08,1.71.2.31.19.56,1.08.37,1.34-.3.43-.95.66-1.49.88-1.42.58-2.87,1.11-4.46,1.72Z"/><path class="cls-1" d="m401.82,362.69c1.91,0,3.52-.07,5.11.04.5.04,1.39.65,1.35.9-.08.58-.56,1.15-.99,1.62-.15.16-.65.08-.97,0-1.32-.35-2.68-.62-3.91-1.17-.41-.18-.49-1.11-.6-1.38Z"/><path class="cls-1" d="m382.2,362.07c.8.51,1.03,1.12.27,1.84-.96.9-.57,1.59.3,2.22-.41.18-.83.52-1.23.5-1.22-.05-2.44-.23-3.83-.38-.17-1.01.44-1.6,1.52-2.13,1.07-.52,1.99-1.35,2.97-2.05Zm-1.13,2.67c-.18.21-.29.34-.4.47.15.13.3.25.45.38.09-.14.24-.28.25-.43,0-.11-.16-.24-.3-.41Z"/><path class="cls-1" d="m308.92,378.88c-.34.72-.39,1.06-.57,1.17-1.46.88-2.89,1.83-4.45,2.48-.37.15-1.17-.73-1.78-1.14.48-.45.88-1.06,1.45-1.31.88-.39,1.86-.57,2.81-.78.72-.16,1.45-.24,2.53-.41Z"/><path class="cls-1" d="m300.16,56.58c-.16.6-.33,1.2-.63,2.31-.46.03-1.43.09-2.4.15-.72-.09-1.45-.19-2.17-.28-.01-.15-.02-.29-.03-.44.35-.14.71-.27,1.06-.41,0,0-.1,0-.1,0,.21.2.42.4.63.6.15.03.29.05.44.08-.08-.09-.16-.18-.24-.27,0-.11.01-.22.02-.33.04-.63.07-1.27.11-1.9.32.07.63.14.95.21.58-.25,1.16-.51,1.75-.76.21.35.42.7.62,1.06Z"/><path class="cls-1" d="m274.46,347.78c.1.71.2,1.42.28,2.06-1.15.44-2.29.87-3.43,1.29-.32-.53-.64-1.05-1.03-1.68,1.11-.71,2.19-1.41,3.44-2.22.12.09.43.31.74.54Z"/><path class="cls-5" d="m386.32,36c-1.16.81-1.77,1.56-2.4,1.58-.52.01-1.05-.85-1.58-1.33.55-.54,1.03-1.35,1.69-1.54.45-.13,1.14.61,2.29,1.29Z"/><path class="cls-1" d="m316.11,374.16c.55-.27,1.07-.66,1.64-.8,1.32-.32,3-.06,3.11-2.33.71,1.22.66,2.05-.65,2.54-1.1.41-2.2.8-3.3,1.19-.27-.2-.53-.4-.8-.61Z"/><path class="cls-1" d="m334.66,363.67c.02.13.01.28.07.39q1.31,2.6-1.46,3.42c-.45-2.05.03-3.33,1.44-3.79l-.04-.03Z"/><path class="cls-1" d="m330.28,375.68c0-.43,0-.87,0-1.3,1.76-1.43,2.35.6,3.44,1.3h-3.45Z"/><path class="cls-1" d="m286.8,67.67c-.96.72-1.92,1.45-2.9,2.15-.04.03-.32-.28-.49-.43.53-2.11,1.26-2.48,3.39-1.72Z"/><path class="cls-1" d="m293.79,71.32c.13-.58.25-1.17.38-1.75.71.57,1.42,1.13,2.13,1.7-.09.16-.17.33-.26.49-.53,0-1.06,0-1.58,0-.22-.15-.45-.29-.68-.44Z"/><path class="cls-1" d="m293.79,71.32c.23.15.45.29.68.44.19.48.38.96.59,1.49-.74-.08-1.41-.15-2.25-.25.06-.46.14-1.15.23-1.84l.02-.02c.24.06.49.12.73.18Z"/><path class="cls-1" d="m293.06,53.17c-1.05-.49-2.11-.99-3.18-1.49.85-1.2,1.84-.81,3.47,1.3-.1.06-.19.13-.3.19Z"/><path class="cls-1" d="m329.28,374.21c-.56-.01-1.13-.03-1.69-.04.09-.38.18-.76.27-1.13.29-.18.57-.35.86-.53.19.57.38,1.13.57,1.7Z"/><path class="cls-1" d="m328.43,377.04c.15-.02.3-.03.44-.05.22.78.45,1.56.68,2.33l-.25.1c-.29-.8-.58-1.59-.87-2.39Z"/><path class="cls-1" d="m279.44,76.36c.39-.25.79-.49,1.18-.74-.39.24-.79.49-1.18.74Z"/><path class="cls-1" d="m280.08,79.16v-1.38c.15,0,.3-.02.46-.02.03.48.05.97.08,1.45-.18-.02-.36-.03-.53-.05Z"/><path class="cls-2" d="m356.11,360.56c.33-.26.65-.52.98-.79.1.11.2.22.3.33-.33.26-.65.53-.98.79-.1-.11-.2-.22-.3-.33Z"/><path class="cls-1" d="m329.02,376.49c.24-.19.49-.37.73-.56.17.18.34.36.73.77-.67-.1-1.07-.15-1.46-.21Z"/><path class="cls-2" d="m355.46,361.27c.15.24.32.39.31.53,0,.14-.19.27-.29.4-.11-.13-.3-.26-.32-.4-.02-.13.15-.29.3-.52Z"/><path class="cls-1" d="m272.12,88.98c-.24.18-.48.36-.72.54.24-.18.48-.36.72-.54Z"/><path class="cls-2" d="m357.24,358.43c.11-.03.25-.12.32-.08.09.05.12.2.17.31-.11.03-.25.12-.33.08-.08-.04-.11-.2-.16-.31Z"/><path class="cls-1" d="m289.48,65.14l-.61-.35c.06-.06.11-.13.17-.19.14.19.29.38.43.56,0,0,.02-.02.02-.02Z"/><path class="cls-1" d="m294.56,75.31l-.09.08s-.09-.08-.09-.08c.03-.16.07-.32.1-.48.03.16.05.33.08.49Z"/><path class="cls-1" d="m381.47,70.74c.16-.11.33-.22.49-.32.03.06.06.12.09.18-.2.04-.4.07-.61.11,0,0,.03.04.03.04Z"/><path class="cls-1" d="m294.62,42.22h-.63v-.18h.63v.18Z"/><path class="cls-1" d="m336.57,360.04c-.24.11-.48.21-.72.32.08-.28.15-.57.23-.85.16.18.33.36.49.53Z"/><polygon class="cls-1" points="288.31 63.8 288.19 63.75 288.32 63.73 288.31 63.8"/><polygon class="cls-1" points="302.66 43.17 302.61 43.12 302.67 43.15 302.66 43.17"/><path class="cls-1" d="m334.7,363.7c-.02-.09-.03-.18-.05-.26.08,0,.15.02.23.03-.08.07-.15.14-.23.21,0,0,.05.03.05.03Z"/><path class="cls-1" d="m294.09,74.04s.09.08.08.12c0,.04-.07.08-.11.12-.03-.04-.1-.09-.09-.13,0-.04.07-.07.11-.11Z"/><path class="cls-1" d="m277.47,75.14c0-.13,0-.27,0-.4,0,0-.01-.01-.01-.01-.04.05-.12.1-.11.14.02.1.07.19.11.29,0,0,.01-.01.01-.01Z"/><path class="cls-4" d="m325.93,92.05c1.4-.55,2.8-1.13,4.22-1.64.7-.25,1.45-.36,2.18-.53-.07.73,0,1.51-.23,2.19-.61,1.82-1.46,3.57-1.99,5.41-.68,2.33.28,3.7,2.64,4.09,2.24.37,4.23,2.58,4.63,5.14.44,2.82-.38,4.64-2.65,5.89-5.24,2.88-9.24.41-9.41-6.08-.07-2.7-1.22-4.31-3.53-5.13-1.96-.69-2.26-1.77-1.42-3.46,0,0-.06.02-.06.02.68-.93,1.37-1.87,2.05-2.8,0,0-.05.03-.05.03.15-.22.29-.43.44-.65.81-.63,1.62-1.26,2.43-1.89.11-.11.22-.23.32-.34,0,0-.02.08-.02.08.15-.14.3-.29.45-.43v.1Zm1.55,17.28c.47,1.66,1.57,2.63,3.29,2.61,2.35-.03,4.44-1.33,4.87-2.82.52-1.84-.4-3.9-2.33-5.21-1.33-.31-2.79-1.12-3.95-.82-2.59.68-3.02,2.58-1.87,6.24Z"/><path class="cls-1" d="m303.84,58.4c1.28-.04,2.68-.02,2.61,1.7-.06,1.55-.46,2.92-2.75,2.47-1.16-.23-2.48.4-3.85.67.23-.78.38-1.31.66-2.27-1.18.78-2.02,1.33-2.86,1.88-.13-.16-.26-.32-.39-.48,1.11-1.01,2.22-2.02,3.65-3.33-.6,3.6,1.93.23,2.43,1.84.2-.98.36-1.74.52-2.5,0,0-.04.04-.04.04Z"/><path class="cls-4" d="m367.91,109.46c-.23.19-.51.58-.68.54-2.24-.55-3-2.28-1.77-4.21.48-.76,1.29-1.31,1.95-1.96.17,1.88.33,3.76.5,5.64Z"/><path class="cls-1" d="m300.16,56.58c-.21-.35-.42-.71-.62-1.06.36-.36.72-.73,1.08-1.09.36.38.73.75,1.09,1.14.4.44.81,1.28,1.18,1.26,1.5-.08.84.94.95,1.57,0,0,.04-.04.04-.04-1.48-.09-2.69-.75-3.72-1.78Z"/><path class="cls-1" d="m303.52,53.77c-1.15-.79-1.66-1.13-2.37-1.62.66-.61,1.32-1.22,1.97-1.84l.61.18c-.06.98-.13,1.95-.21,3.27Z"/><path class="cls-1" d="m300.14,47.33c.26.66.45,1.13.68,1.73-1.16,1.47-1.97.73-2.63-.77.7-.34,1.38-.69,1.95-.96Z"/><path class="cls-5" d="m322.36,95.16c-.68.93-1.37,1.87-2.05,2.8.68-.93,1.37-1.87,2.05-2.8Z"/><path class="cls-4" d="m361.02,49.49c.25-.37.51-.74.76-1.12.14.09.29.18.43.28-.26.39-.51.78-.77,1.18-.14-.11-.28-.23-.42-.34Z"/><path class="cls-4" d="m306.48,44.55c.33.05.66.09.99.14-.04.16-.08.32-.13.49-.37-.13-.74-.25-1.11-.38.09-.08.17-.16.25-.25Z"/><path class="cls-1" d="m278.17,76.15c-.12-.24-.19-.38-.26-.51.13-.07.27-.18.4-.18.08,0,.26.2.24.24-.07.14-.2.25-.38.45Z"/><path class="cls-1" d="m285.76,82.96c-.08.06-.16.17-.25.17-.07,0-.14-.12-.2-.19.05-.04.1-.11.14-.1.11.02.21.08.31.13Z"/><path class="cls-4" d="m307.81,46.91c-.05.08-.09.17-.14.26-.04-.04-.13-.1-.13-.13.02-.09.08-.18.13-.27.04.04.09.09.14.14Z"/><path class="cls-4" d="m308.81,47.71c-.17.1-.35.19-.52.29-.04-.1-.14-.26-.11-.29.1-.11.25-.17.39-.25.08.08.16.16.24.24Z"/><path class="cls-4" d="m306.24,44.8c-.1-.15-.19-.31-.29-.46.18.07.35.15.53.22-.08.08-.16.17-.24.24Z"/><path class="cls-5" d="m322.75,94.54c-.15.22-.29.43-.44.65.15-.22.29-.43.44-.65Z"/><path class="cls-5" d="m325.5,92.31c-.11.11-.22.23-.32.34.11-.11.22-.23.32-.34Z"/><path class="cls-5" d="m325.93,91.95c-.15.14-.3.29-.45.43.15-.14.3-.29.45-.43Z"/><path class="cls-1" d="m277.46,75.16c-.04-.1-.09-.19-.11-.29,0-.04.07-.09.11-.14.18.07.37.15.55.22-.18.07-.37.14-.55.21Z"/><polygon class="cls-1" points="293.52 77.49 293.51 77.55 293.52 77.45 293.52 77.49"/><path class="cls-1" d="m306.69,372.6c1.22-1.37,1.7-2.6,3.62-2.45,1.83.14,3.74-.23,5.55-.63,1.47-.33,2.71-.38,4.1,1.27-4.39.6-8.52,1.16-13.27,1.81Z"/><path class="cls-1" d="m325.1,368.55q-3.63,1.27-3.39-.85c.7-.04,1.43-.08,2.16-.12-.15-.19-.3-.39-.45-.58.64-.92,1.27-1.84,2.21-3.2-.2,1.83-.35,3.18-.53,4.74Z"/><path class="cls-1" d="m276.26,334.89c-.04.65-.07,1.31-.08,1.5-1.71.54-3.18,1.01-4.66,1.48l-.26-.56c1.67-.8,3.35-1.6,5.02-2.4h-.01Z"/><path class="cls-2" d="m278.6,334.14c-.25.18-.5.36-.75.55-.07-.07-.13-.14-.2-.21.2-.24.4-.47.59-.71.12.12.24.25.36.37Z"/><path class="cls-1" d="m327.86,373.04c-.09.38-.18.76-.27,1.13.09-.38.18-.76.27-1.13Z"/><path class="cls-4" d="m352.64,355.71c-.11-.16-.22-.32-.05-.07-.01-.29,0-.1,0,.1,0,0,.04-.04.04-.04Z"/><polygon class="cls-1" points="276.27 334.91 276.34 334.83 276.26 334.89 276.27 334.91"/><path class="cls-4" d="m364.32,321.97c-11.62,7.13-23.51,10.35-36.73,4.95-6.24-2.54-11.69-5.78-15.93-11.17-3.1-3.95-7.53-6.37-11.99-8.68-1.51-.78-3.06-2.06-3.87-3.52-2.16-3.88-3.9-7.99-5.86-11.99-1.4-2.86-.83-5.86-.65-8.81.1-1.65.38-3.34.93-4.89,1.12-3.15.99-6.34,1.02-9.6.08-7.31.34-14.62.8-21.92.44-6.88-.07-13.69-1-20.48-.45-3.29-.8-6.61-1.53-9.84-.63-2.81-1.66-5.55-2.68-8.26-.21-.55-1.13-.96-1.81-1.18-5.83-1.93-11.81-1.58-17.81-1.08-12.44,1.04-24.29,4.45-35.92,8.79-1.24.46-2.53.79-3.98,1.24-.21-1.96-1.39-2.39-3.08-2.21-.53.06-1.22-.2-1.65-.54-2.61-2.09-2.6-2.11-5.48-2.49,1.42-1.59,2.51-3.02,3.81-4.23,5.2-4.82,11.4-8.01,17.94-10.54,9.91-3.83,19.81-7.7,29.81-11.27,4.68-1.67,9.59-2.66,14.4-3.96.25-.07.53-.08.78-.16,5-1.63,5.26-1.62,8.26,2.58,4.31,6.03,5.07,12.54,2.27,19.43-.5,1.23-1.08,2.43-1.43,3.7-.21.76-.04,1.61.39,2.41,1.65-3.32,3.65-6.52,4.84-10,1.04-3.03,1.01-6.4,1.73-9.56,1.66-7.31,3.32-14.63,5.3-21.85.99-3.64,3.81-6.14,7.18-7.65,4.47-2,9.04-3.86,13.69-5.4,8.5-2.83,17.25-4.69,26.25-4.37,7.33.27,14.26,2.2,20.11,7.03,4.39,3.62,6.76,8.44,8.44,13.69,1.2,3.76,2.32,7.55,3.52,11.5,2.67-4.67,6.86-3.11,10.67-2.4,8.2,1.52,16.02,4.23,23.55,7.88,5.37,2.61,10.96,4.76,16.39,7.26,4.35,1.99,8.44,4.41,10.16,9.26.77,2.18,1.34,4.44,1.8,6.71.53,2.6-1.41,4.63-4.3,4.32-6.22-.67-12.39-1.88-18.62-2.25-10.1-.61-19.19-5.53-29.17-6.4-5.83-.51-11.69-.67-17.54-.92-1.19-.05-2.26.63-1.96,1.9.17.71,1.18,1.61,1.92,1.73,1.56.26,3.19.14,4.78.02,1.76-.13,2.33.77,2.5,2.32,1.2,10.56.58,21.13.29,31.71-.35,13.04-.46,26.1-.53,39.14-.05,9.93-.21,19.8-3.28,29.42-.61,1.9.22,4.28.46,6.43.25,2.25.58,4.49.89,6.73.38,2.75-1.5,5.28-4.33,5.53-1.95.17-3.94-.09-5.89.08-1.71.15-2.48-.79-3.27-2.02-1.15-1.79-2.42-3.5-3.66-5.22-.23-.31-.57-.55-.94-.89Z"/><path class="cls-3" d="m312.52,344.85c-.89,2.3-1.67,4.36-2.49,6.39-.82,2.02-2.15,2.29-3.32.53-1.67-2.51-3.25-5.11-4.65-7.78-.47-.9-.68-2.38-.26-3.21,1.29-2.58.97-5,.05-7.52-.31-.86-.53-1.75-.84-2.81-.29,2.83-.49,5.47-.86,8.08-.24,1.69-.72,3.35-1.13,5.01-.4,1.61-1.15,3.32-3.07,2.64-1.26-.45-2.36-1.84-3.16-3.05-2.49-3.75-2.94-8.01-2.71-12.39.02-.46-.04-.95-.19-1.38-1.61-4.64-.9-9.37-.22-13.99.54-3.69,1.43-7.42,3.31-10.75,1.36,1.42,2.54,2.74,3.82,3.95.51.49,1.24,1.05,1.87,1.06,3.75.04,5.42,2.99,7.58,5.24,3.25,3.4,6.48,6.83,9.65,10.29.5.55,1.02,1.38,1.01,2.07-.08,3.76-.27,7.53-.53,11.28-.16,2.33-1.21,4.66.3,6.96.21.32-.18,1.48-.54,1.62-.54.21-1.43.05-1.92-.3-.71-.52-1.2-1.35-1.71-1.95Z"/><path class="cls-3" d="m373.94,118.26c-4.55.84-8.56,1.58-12.58,2.33-.39.07-.79.1-1.18.18-7.69,1.65-6.21,1.83-11.45-3.62-2.03-2.1-4.25-2.77-7.01-2.28-1.5.27-3.02.46-4.54.52-.45.02-.92-.54-1.38-.83.34-.37.6-.88,1.02-1.08,2.32-1.09,4.74-2.01,7.01-3.19,1.93-1,3.71-2.3,5.58-3.42,3.72-2.23,9.55-1.76,12.92.99,2.62,2.14,5.31,4.21,7.87,6.42,1.23,1.06,2.25,2.37,3.75,3.97Z"/><path class="cls-3" d="m397.3,347.85c-2.45.36-4.9.72-7.35,1.05-.24.03-.58-.02-.74-.17-2.62-2.56-4.84-.79-7.13.6-.46.28-1.05.55-1.55.51-1.95-.14-3.89-.64-5.82-.56-1.94.08-3.85.71-5.78,1.08-.51.1-1.02.15-1.93-.17.95-1.26,1.83-2.58,2.86-3.77,1.04-1.2,2.24-2.27,3.36-3.41,2.51-2.56,2.59-5.43.24-8.16-.64-.74-1.31-1.45-2.32-2.56,1.91-.42,3.41-.85,4.93-1.06,1.77-.24,3.57-.23,5.34-.41,1.16-.12,1.78.33,2.35,1.35,1.59,2.84,3.17,5.7,5.06,8.33.99,1.39,2.56,2.4,3.97,3.46,1.5,1.12,3.12,2.1,4.68,3.13-.06.24-.12.49-.18.73Z"/><path class="cls-4" d="m384.05,355.01c-.32.42-.64.84-.96,1.26-2,.19-4.01.38-6.01.56.43-2,1.84-3.17,3.7-3.09.72.03,1.44.04,2.16.06.3.11.6.22.9.34,0,0-.04-.01-.04-.01.08.29.16.59.24.88Z"/><path class="cls-1" d="m384.05,355.01c-.08-.29-.16-.59-.24-.88,1.85-.3,3.62-.3,5.04,1.21-.36.07-.73.14-.87.17v1.69c-1.41-.79-2.67-1.49-3.93-2.19Z"/><path class="cls-1" d="m383.85,354.15c-.3-.11-.6-.22-.9-.34.3.11.6.22.9.34Z"/><path class="cls-4" d="m373.59,10.97c.66.55,1.39.98,1.88,1.59.51.64,1.06,1.44,1.11,2.2.35,5.61-.91,10.83-4.36,15.34-.56.74-1.76,1.43-2.6,1.36-.55-.04-1.22-1.43-1.45-2.31-1.63-6.2,1.09-14.97,5.42-18.19Z"/><path class="cls-4" d="m360.09,13.38c-1.13,4.13-2.08,8.34-3.51,12.36-.48,1.34-2.29,3.22-3.33,3.13-1.84-.17-1.78-2.5-1.89-4.1-.34-5.33.79-10.33,4.06-14.64.63-.84,1.87-1.22,2.82-1.82.41.98.91,1.93,1.21,2.94.18.61.03,1.32.03,1.98.2.05.4.1.6.15Z"/><path class="cls-1" d="m295.89,57.91c.28.02.57.05.85.07,0,.11-.01.22-.02.34-.07.06-.14.13-.2.19-.21-.2-.42-.4-.63-.6Z"/><path class="cls-1" d="m296.72,58.31c.08.09.16.18.24.27-.15-.03-.29-.06-.44-.08.06-.06.13-.13.2-.19Z"/><path class="cls-3" d="m333.3,103.91c1.93,1.31,2.85,3.37,2.33,5.21-.42,1.49-2.51,2.79-4.87,2.82-1.72.02-2.82-.95-3.29-2.61.22-3.86,1.45-5.31,4.48-5.3.45,0,.89-.08,1.34-.12Zm.72,4.23c-1.17-.74-1.92-1.6-2.52-1.5-.63.1-1.11,1.12-1.66,1.73.65.53,1.26,1.38,1.98,1.49.5.08,1.16-.86,2.21-1.72Z"/><path class="cls-5" d="m333.3,103.91c-.45.04-.89.12-1.34.12-3.03,0-4.26,1.44-4.48,5.3-1.14-3.66-.72-5.56,1.87-6.24,1.17-.31,2.62.51,3.95.82Z"/><path class="cls-5" d="m334.02,108.14c-1.05.86-1.7,1.8-2.21,1.72-.72-.11-1.32-.96-1.98-1.49.55-.62,1.03-1.63,1.66-1.73.6-.1,1.35.76,2.52,1.5Z"/><path class="cls-1" d="m425.55,345.99c.34.53,1.14,1.54,1.04,1.64-.76.74-1.7,1.31-2.58,1.93-.13-.16-.27-.32-.4-.48.55-.87,1.1-1.75,1.94-3.08Z"/><path class="cls-4" d="m459.84,309.4c-.28,1.21-.57,2.41-.85,3.62-.54.34-1.04.88-1.62.97-1.81.3-1.85,1.44-1.67,2.99.77-.11,1.39-.21,2.02-.3-1.44,2.34-1.38,4.93-1.29,7.53-2.22.15-3.83,1.5-4.66,3.3-.93,2.01-2.42,2.47-4.27,2.62-1.02.08-2.05.01-3.15.01,1-2.61,3.07-3.59,5.21-4.68,1.24-.64,2.71-2,2.87-3.2.13-.97.06-2.08.27-3.18.38-1.96.45-3.97.66-6.09-.03,0,.17-.12.31-.08,2.84.86,4.42-.43,5.3-3.02.08-.23.57-.33.87-.48Z"/><path class="cls-1" d="m457.72,316.68c-.63.09-1.26.19-2.02.3-.17-1.55-.14-2.7,1.67-2.99.58-.09,1.08-.64,1.62-.97.41.48,1.23,1.07,1.14,1.43-.18.71-.81,1.34-1.35,1.91-.22.23-.7.22-1.07.32Z"/><path class="cls-1" d="m246.46,238.73c-.42.25-.84.5-.99.59-.88-.8-1.86-1.63-2.77-2.52-.33-.32-.77-.92-.66-1.2.21-.55.84-1.41,1.17-1.35,1.51.25,2.27-.49,3.16-1.53.69-.81,1.52-1.59,3.07-.97,1.02.41,2.48-.29,3.74-.49.08.24.17.48.25.72-1.65.83-3.29,1.66-5.1,2.57.63.71,1.15,1.3,1.67,1.9.02-.17.05-.34.07-.51.8-.07,1.6-.14,1.84-.16.69,1.29,1.23,2.15,1.59,3.07.14.38-.01,1.25-.23,1.32-.83.28-1.73.32-2.61.45-.05-.76-.09-1.51-.14-2.38-1.24-.22-2.46-.44-3.53-.63-.21.46-.37.79-.53,1.13Z"/><path class="cls-1" d="m229.06,236c-.74.1-1.48.22-2.22.31-.97.11-1.94.32-2.9.26-.61-.04-1.19-.5-1.78-.78.44-.57.94-1.67,1.32-1.63,1.89.19,3.74.68,5.61,1.07-.01.26-.02.52-.04.78Z"/></svg>